<svg width="120" height="30" viewBox="0 0 120 30" fill="none" xmlns="http://www.w3.org/2000/svg"><path d="M4.932 9.9A4.931 4.931 0 000 14.832v9.937a4.932 4.932 0 004.932 4.933h27.264a4.932 4.932 0 004.932-4.933V4.931A4.931 4.931 0 0032.196 0H0v4.95h30.578c.884 0 1.599.716 1.599 1.6v16.603a1.6 1.6 0 01-1.599 1.6H6.548a1.6 1.6 0 01-1.598-1.6v-6.704a1.6 1.6 0 011.599-1.599h20.677V9.9H4.932z" fill="#0095D6"/><path d="M101.085 16.843c0 3.717-2.6 5.78-6.152 5.78-3.558 0-6.153-2.063-6.153-5.78 0-3.714 2.595-5.781 6.153-5.781 3.552 0 6.152 2.067 6.152 5.781zm-25.398 5.439h2.676l.689-1.446c.83 1.277 2.167 1.787 3.668 1.787 3.58 0 4.912-2.715 4.912-5.78 0-3.059-1.333-5.781-4.912-5.781-1.068 0-2.19.626-3.07 1.602V6.886h-5.916v1.857h1.096c.692 0 .857.344.857 1v12.539zm-13.381 0h2.676l.689-1.446c.831 1.277 2.168 1.787 3.669 1.787 3.58 0 4.913-2.715 4.913-5.78 0-3.059-1.333-5.781-4.913-5.781-1.066 0-2.19.626-3.073 1.602V6.886h-5.914v1.857h1.096c.691 0 .857.344.857 1v12.539zM51.148 10.34h.048l1.714 5h-3.46l1.698-5zm-1.43-3.454l-3.982 11.606c-.483 1.416-.812 1.744-1.646 1.744h-.813v2.046h7.01v-2.046h-.686c-.647 0-1.485-.071-1.485-.447 0-.325.097-.67.357-1.478l.29-.93h4.865l.498 1.668c.096.349.12.604.12.842 0 .252-.595.345-1.312.345h-.713v2.046h8.702v-2.046h-.81c-.83 0-1.165-.328-1.639-1.744L54.49 6.886h-4.771zm20.318 9.956c0 2.372-.544 3.787-1.886 3.787-1.334 0-1.883-1.415-1.883-3.787 0-2.366.549-3.78 1.883-3.78 1.342 0 1.886 1.414 1.886 3.78zm24.897-3.922c-1.43 0-1.93 1.184-1.93 3.923 0 2.74.5 3.924 1.93 3.924 1.429 0 1.927-1.185 1.927-3.924 0-2.74-.498-3.923-1.927-3.923zm23.155 4.112v1.81c0 1.066-.237 1.698-1.143 1.698-.548 0-.808-.398-.808-.887V13.27h2.927v-1.858h-2.927V7.097h-2.365c-.194 1.925-.812 4.314-3.196 4.314h-3.72V7.097h-2.358c-.192 1.925-.814 4.314-3.195 4.314v1.858h1.596v5.826c0 2.369 1.359 3.528 3.811 3.528 2.868 0 4.005-1.25 4.005-3.528v-2.063h-1.9v1.81c0 1.066-.241 1.698-1.144 1.698-.554 0-.815-.398-.815-.887V13.27h5.325v5.826c0 2.369 1.353 3.528 3.811 3.528 2.859 0 4.007-1.25 4.007-3.528v-2.063h-1.911zm-34.673-.19c0 2.372-.542 3.787-1.886 3.787-1.333 0-1.88-1.415-1.88-3.787 0-2.366.547-3.78 1.88-3.78 1.344 0 1.886 1.414 1.886 3.78z" fill="#000"/></svg>