<svg width="120" height="30" viewBox="0 0 120 30" fill="none" xmlns="http://www.w3.org/2000/svg">
<path d="M4.93218 9.90041C2.20779 9.90041 0 12.1082 0 14.8318V24.7693C0 27.4945 2.20779 29.7023 4.93218 29.7023H32.1956C34.92 29.7023 37.1275 27.4945 37.1275 24.7693V4.93112C37.1275 2.20778 34.92 0 32.1956 0H0V4.95034H30.5781C31.4616 4.95034 32.1769 5.66591 32.1769 6.54913V23.1526C32.1769 24.0351 31.4616 24.7522 30.5781 24.7522H6.54861C5.66644 24.7522 4.95034 24.0351 4.95034 23.1526V16.449C4.95034 15.5668 5.66592 14.8505 6.54861 14.8505H27.2263V9.90041H4.93218Z" fill="black"/>
<path d="M101.085 16.8432C101.085 20.5597 98.4848 22.6234 94.9333 22.6234C91.3752 22.6234 88.7796 20.5597 88.7796 16.8432C88.7796 13.1289 91.3752 11.0619 94.9333 11.0619C98.4848 11.0619 101.085 13.1289 101.085 16.8432ZM75.6867 22.2815H78.3628L79.0518 20.8357C79.8817 22.113 81.2191 22.6234 82.7202 22.6234C86.2994 22.6234 87.6325 19.9083 87.6325 16.8421C87.6325 13.784 86.2994 11.0619 82.7202 11.0619C81.6524 11.0619 80.5301 11.6884 79.6492 12.6638V6.88574H73.7335V8.74264H74.8302C75.5214 8.74264 75.6867 9.08722 75.6867 9.74346V22.2815ZM62.3059 22.2815H64.982L65.671 20.8357C66.502 22.113 67.8394 22.6234 69.34 22.6234C72.9197 22.6234 74.2527 19.9083 74.2527 16.8421C74.2527 13.784 72.9197 11.0619 69.34 11.0619C68.2738 11.0619 67.1504 11.6884 66.2673 12.6638V6.88574H60.3527V8.74264H61.4494C62.1401 8.74264 62.3059 9.08722 62.3059 9.74346V22.2815ZM51.1479 10.3403H51.1957L52.9098 15.3395H49.4493L51.1479 10.3403ZM49.7178 6.88574L45.7365 18.4916C45.2528 19.9083 44.9243 20.2361 44.09 20.2361H43.2773V22.2815H50.287V20.2361H49.6013C48.954 20.2361 48.1163 20.1649 48.1163 19.7895C48.1163 19.4638 48.2128 19.1197 48.473 18.3107L48.7626 17.3806H53.6276L54.1263 19.0484C54.2217 19.3979 54.2461 19.6534 54.2461 19.891C54.2461 20.1432 53.6509 20.2361 52.9342 20.2361H52.2208V22.2815H60.923V20.2361H60.1131C59.2832 20.2361 58.9475 19.9083 58.4744 18.4916L54.4891 6.88574H49.7178ZM70.0356 16.8421C70.0356 19.2143 69.492 20.6288 68.1501 20.6288C66.8159 20.6288 66.2673 19.2143 66.2673 16.8421C66.2673 14.4764 66.8159 13.0619 68.1501 13.0619C69.492 13.0619 70.0356 14.4764 70.0356 16.8421ZM94.9333 12.9204C93.5032 12.9204 93.0023 14.1038 93.0023 16.8432C93.0023 19.5821 93.5032 20.7665 94.9333 20.7665C96.3618 20.7665 96.8605 19.5821 96.8605 16.8432C96.8605 14.1038 96.3618 12.9204 94.9333 12.9204ZM118.088 17.0317V18.841C118.088 19.9083 117.851 20.5402 116.945 20.5402C116.397 20.5402 116.137 20.1422 116.137 19.6534V13.2693H119.064V11.4113H116.137V7.09746H113.772C113.578 9.02187 112.96 11.4113 110.576 11.4113H106.856V7.09746H104.498C104.306 9.02187 103.684 11.4113 101.303 11.4113V13.2693H102.899V19.0949C102.899 21.4638 104.258 22.6234 106.71 22.6234C109.578 22.6234 110.715 21.3731 110.715 19.0949V17.0317H108.815V18.841C108.815 19.9083 108.574 20.5402 107.671 20.5402C107.116 20.5402 106.856 20.1422 106.856 19.6534V13.2693H112.181V19.0949C112.181 21.4638 113.534 22.6234 115.992 22.6234C118.851 22.6234 119.999 21.3731 119.999 19.0949V17.0317H118.088ZM83.4153 16.8421C83.4153 19.2143 82.8728 20.6288 81.5292 20.6288C80.1956 20.6288 79.6492 19.2143 79.6492 16.8421C79.6492 14.4764 80.1956 13.0619 81.5292 13.0619C82.8728 13.0619 83.4153 14.4764 83.4153 16.8421Z" fill="black"/>
</svg>
