<svg width="83" height="21" viewBox="0 0 83 21" fill="none" xmlns="http://www.w3.org/2000/svg"><path d="M3.411 6.848A3.411 3.411 0 000 10.258v6.874a3.411 3.411 0 003.411 3.412H22.27a3.411 3.411 0 003.411-3.412V3.411A3.41 3.41 0 0022.27 0H0v3.424h21.15c.611 0 1.106.495 1.106 1.106v11.484c0 .61-.495 1.107-1.106 1.107H4.53c-.61 0-1.106-.497-1.106-1.107v-4.637c0-.61.495-1.105 1.106-1.105h14.302V6.848H3.412z" fill="#0095D6"/><path d="M69.918 11.65c0 2.57-1.799 3.998-4.255 3.998-2.461 0-4.257-1.427-4.257-3.998 0-2.57 1.796-3.999 4.257-3.999 2.456 0 4.255 1.43 4.255 3.999zM52.35 15.412h1.851l.477-1c.574.883 1.499 1.236 2.537 1.236 2.476 0 3.398-1.878 3.398-3.999 0-2.115-.922-3.998-3.398-3.998-.738 0-1.515.434-2.124 1.108V4.763H51v1.284h.759c.478 0 .592.238.592.692v8.673zm-9.255 0h1.851l.477-1c.575.883 1.5 1.236 2.538 1.236 2.476 0 3.398-1.878 3.398-3.999 0-2.115-.922-3.998-3.398-3.998-.738 0-1.515.434-2.126 1.108V4.763h-4.09v1.284h.758c.477 0 .592.238.592.692v8.673zm-7.718-8.26h.033l1.186 3.458h-2.393l1.174-3.458zm-.989-2.39l-2.753 8.028c-.335.98-.562 1.207-1.14 1.207h-.561v1.415h4.848v-1.415h-.474c-.448 0-1.027-.05-1.027-.31 0-.224.066-.462.246-1.022l.2-.643h3.366l.345 1.153c.066.242.082.419.082.583 0 .175-.411.239-.907.239h-.493v1.415h6.019v-1.415h-.56c-.575 0-.807-.227-1.134-1.207l-2.757-8.027h-3.3zm14.054 6.887c0 1.641-.376 2.62-1.305 2.62-.922 0-1.302-.979-1.302-2.62 0-1.636.38-2.614 1.302-2.614.929 0 1.305.978 1.305 2.614zm17.22-2.712c-.988 0-1.335.818-1.335 2.713 0 1.894.347 2.714 1.336 2.714.988 0 1.333-.82 1.333-2.714 0-1.895-.345-2.713-1.333-2.713zm16.016 2.843v1.252c0 .738-.163 1.175-.79 1.175-.38 0-.56-.275-.56-.613V9.178h2.026V7.893h-2.025V4.909h-1.636c-.134 1.331-.562 2.984-2.21 2.984H73.91V4.909h-1.632c-.133 1.331-.563 2.984-2.21 2.984v1.285h1.105v4.03c0 1.638.94 2.44 2.635 2.44 1.984 0 2.77-.865 2.77-2.44V11.78h-1.314v1.252c0 .738-.166 1.175-.791 1.175-.383 0-.563-.275-.563-.613V9.178h3.682v4.03c0 1.638.936 2.44 2.636 2.44 1.978 0 2.772-.865 2.772-2.44V11.78h-1.322zm-23.982-.13c0 1.64-.375 2.618-1.304 2.618-.923 0-1.3-.978-1.3-2.619 0-1.636.377-2.614 1.3-2.614.929 0 1.304.978 1.304 2.614z" fill="#000"/></svg>