<svg width="172" height="43" viewBox="0 0 172 43" fill="none" xmlns="http://www.w3.org/2000/svg"><path d="M7.449 14.565a7.05 7.05 0 00-7.05 7.05V35.82a7.05 7.05 0 007.05 7.051H46.42a7.05 7.05 0 007.05-7.051V7.462A7.049 7.049 0 0046.42.413H.398V7.49h43.71a2.285 2.285 0 012.286 2.286V33.51a2.286 2.286 0 01-2.285 2.286H9.759a2.287 2.287 0 01-2.284-2.286v-9.583a2.285 2.285 0 012.284-2.285h29.559v-7.076H7.448zM144.9 24.49c0 5.312-3.717 8.262-8.794 8.262-5.086 0-8.796-2.95-8.796-8.262 0-5.31 3.71-8.264 8.796-8.264 5.077 0 8.794 2.954 8.794 8.264zm-36.306 7.774h3.825l.985-2.067c1.186 1.826 3.098 2.555 5.244 2.555 5.116 0 7.022-3.88 7.022-8.264 0-4.371-1.906-8.262-7.022-8.262-1.527 0-3.131.895-4.39 2.29v-8.26h-8.456v2.654h1.567c.988 0 1.225.493 1.225 1.43v17.924zm-19.128 0h3.826l.984-2.067c1.188 1.826 3.1 2.555 5.245 2.555 5.117 0 7.023-3.88 7.023-8.264 0-4.371-1.906-8.262-7.023-8.262-1.524 0-3.13.895-4.392 2.29v-8.26h-8.455v2.654h1.568c.987 0 1.224.493 1.224 1.43v17.924zm-15.95-17.07h.069l2.45 7.146h-4.947l2.428-7.146zm-2.044-4.938l-5.691 16.59c-.692 2.025-1.161 2.494-2.354 2.494h-1.161v2.924h10.02V29.34h-.98c-.926 0-2.123-.102-2.123-.639 0-.465.138-.957.51-2.114l.414-1.33h6.954l.713 2.385c.136.5.171.865.171 1.204 0 .361-.85.494-1.875.494h-1.02v2.924h12.44V29.34h-1.158c-1.187 0-1.666-.469-2.343-2.494l-5.697-16.59h-6.82zm29.044 14.232c0 3.391-.777 5.413-2.696 5.413-1.907 0-2.691-2.022-2.691-5.413 0-3.381.784-5.404 2.691-5.404 1.919 0 2.696 2.023 2.696 5.404zm35.59-5.606c-2.044 0-2.76 1.692-2.76 5.608 0 3.915.716 5.608 2.76 5.608 2.042 0 2.755-1.693 2.755-5.608 0-3.916-.713-5.608-2.755-5.608zm33.099 5.877v2.587c0 1.525-.339 2.428-1.634 2.428-.783 0-1.155-.569-1.155-1.267V19.38h4.185v-2.656h-4.185v-6.167h-3.38c-.278 2.751-1.161 6.167-4.569 6.167h-5.317v-6.167h-3.371c-.276 2.751-1.164 6.167-4.568 6.167v2.656h2.282v8.327c0 3.387 1.942 5.044 5.447 5.044 4.101 0 5.726-1.787 5.726-5.044V24.76h-2.716v2.587c0 1.525-.345 2.428-1.636 2.428-.792 0-1.164-.569-1.164-1.267V19.38h7.611v8.327c0 3.387 1.934 5.044 5.447 5.044 4.087 0 5.728-1.787 5.728-5.044V24.76h-2.731zm-49.563-.27c0 3.39-.776 5.412-2.697 5.412-1.906 0-2.687-2.022-2.687-5.413 0-3.381.781-5.404 2.687-5.404 1.921 0 2.697 2.023 2.697 5.404z" fill="#fff"/></svg>