<svg width="96" height="24" viewBox="0 0 96 24" fill="none" xmlns="http://www.w3.org/2000/svg"><path d="M3.94 7.846C1.765 7.846 0 9.596 0 11.754v7.875c0 2.16 1.764 3.91 3.94 3.91h21.784c2.177 0 3.94-1.75 3.94-3.91V3.908C29.665 1.75 27.902 0 25.725 0H0v3.923h24.432c.706 0 1.277.567 1.277 1.267v13.158c0 .7-.571 1.268-1.277 1.268h-19.2a1.273 1.273 0 01-1.277-1.268v-5.312c0-.7.572-1.267 1.277-1.267h16.522V7.846H3.94zm76.829 5.501c0 2.946-2.078 4.581-4.916 4.581-2.843 0-4.917-1.635-4.917-4.58 0-2.944 2.074-4.582 4.917-4.582 2.838 0 4.916 1.638 4.916 4.581zm-20.294 4.31h2.138l.55-1.146c.664 1.013 1.733 1.417 2.932 1.417 2.86 0 3.925-2.152 3.925-4.582 0-2.423-1.065-4.58-3.925-4.58-.853 0-1.75.496-2.454 1.27v-4.58h-4.727v1.472h.877c.552 0 .684.273.684.793v9.936zm-10.691 0h2.138l.55-1.146c.664 1.013 1.733 1.417 2.932 1.417 2.86 0 3.925-2.152 3.925-4.582 0-2.423-1.065-4.58-3.925-4.58-.852 0-1.75.496-2.455 1.27v-4.58h-4.726v1.472h.877c.551 0 .684.273.684.793v9.936zm-8.915-9.463h.038l1.37 3.962H39.51l1.358-3.962zm-1.143-2.738l-3.181 9.198c-.387 1.122-.649 1.382-1.316 1.382h-.649v1.621h5.6v-1.62h-.547c-.517 0-1.187-.057-1.187-.355 0-.258.078-.53.285-1.172l.232-.737h3.887l.398 1.322c.077.277.096.48.096.668 0 .2-.475.273-1.048.273h-.57v1.621h6.953v-1.62h-.647c-.663 0-.931-.26-1.31-1.383l-3.184-9.198h-3.812zm16.234 7.89c0 1.88-.434 3.001-1.507 3.001-1.066 0-1.504-1.12-1.504-3 0-1.875.438-2.996 1.504-2.996 1.073 0 1.507 1.12 1.507 2.995zm19.893-3.107c-1.142 0-1.543.937-1.543 3.108 0 2.17.4 3.11 1.543 3.11 1.142 0 1.54-.94 1.54-3.11s-.398-3.108-1.54-3.108zm18.5 3.258v1.434c0 .845-.188 1.346-.913 1.346-.437 0-.645-.315-.645-.703v-5.059h2.339V9.043h-2.339V5.624h-1.89c-.155 1.525-.648 3.419-2.553 3.419H85.38V5.624h-1.884c-.154 1.525-.651 3.419-2.554 3.419v1.472h1.276v4.617c0 1.877 1.085 2.796 3.045 2.796 2.292 0 3.2-.99 3.2-2.796v-1.635h-1.518v1.434c0 .845-.193 1.346-.915 1.346-.442 0-.65-.315-.65-.703v-5.059h4.254v4.617c0 1.877 1.081 2.796 3.045 2.796 2.284 0 3.201-.99 3.201-2.796v-1.635h-1.526zm-27.703-.15c0 1.88-.433 3-1.507 3-1.065 0-1.502-1.12-1.502-3 0-1.875.437-2.996 1.502-2.996 1.074 0 1.507 1.12 1.507 2.995z" fill="#fff"/></svg>