<svg width="83" height="21" viewBox="0 0 83 21" fill="none" xmlns="http://www.w3.org/2000/svg"><path d="M3.411 6.848A3.41 3.41 0 000 10.258v6.874a3.411 3.411 0 003.411 3.412H22.27a3.411 3.411 0 003.41-3.412V3.411A3.41 3.41 0 0022.27 0H0v3.424h21.15c.611 0 1.106.495 1.106 1.106v11.484c0 .61-.495 1.106-1.106 1.106H4.53c-.61 0-1.106-.496-1.106-1.106v-4.637c0-.61.495-1.105 1.105-1.105h14.303V6.848H3.412zm66.507 4.802c0 2.57-1.798 3.998-4.255 3.998-2.46 0-4.256-1.428-4.256-3.998 0-2.57 1.795-4 4.256-4 2.457 0 4.255 1.43 4.255 4zm-17.567 3.76h1.851l.477-1c.574.884 1.499 1.237 2.537 1.237 2.475 0 3.398-1.878 3.398-4 0-2.114-.922-3.997-3.398-3.997-.739 0-1.515.433-2.124 1.108V4.762H51v1.285h.759c.478 0 .592.238.592.692v8.672zm-9.255 0h1.85l.477-1c.575.884 1.5 1.237 2.538 1.237 2.476 0 3.398-1.878 3.398-4 0-2.114-.922-3.997-3.398-3.997-.737 0-1.514.433-2.125 1.108V4.762h-4.091v1.285h.759c.477 0 .592.238.592.692v8.672zm-7.718-8.26h.033l1.186 3.459h-2.394l1.175-3.458zm-.989-2.389l-2.754 8.028c-.334.98-.561 1.207-1.138 1.207h-.562v1.414h4.848v-1.415h-.474c-.448 0-1.027-.049-1.027-.309 0-.225.066-.463.246-1.022l.2-.644h3.365l.345 1.154c.066.242.083.418.083.583 0 .174-.411.239-.907.239h-.493v1.414h6.018v-1.415h-.56c-.574 0-.806-.226-1.133-1.206l-2.757-8.028h-3.3zm14.053 6.887c0 1.64-.376 2.62-1.304 2.62-.923 0-1.302-.98-1.302-2.62 0-1.636.38-2.615 1.302-2.615.928 0 1.304.979 1.304 2.615zm17.221-2.713c-.989 0-1.335.819-1.335 2.714 0 1.894.346 2.713 1.335 2.713.988 0 1.333-.819 1.333-2.713 0-1.895-.345-2.714-1.333-2.714zM81.68 11.78v1.252c0 .738-.164 1.175-.791 1.175-.379 0-.559-.276-.559-.614V9.178h2.025V7.893H80.33V4.909h-1.635c-.135 1.33-.562 2.984-2.211 2.984H73.91V4.909h-1.631c-.133 1.33-.563 2.984-2.21 2.984v1.285h1.104v4.03c0 1.638.94 2.44 2.636 2.44 1.984 0 2.77-.865 2.77-2.44V11.78h-1.314v1.252c0 .738-.167 1.175-.792 1.175-.383 0-.563-.276-.563-.614V9.178h3.683v4.03c0 1.638.936 2.44 2.636 2.44 1.977 0 2.771-.865 2.771-2.44V11.78h-1.32zm-23.982-.131c0 1.64-.376 2.62-1.305 2.62-.922 0-1.3-.98-1.3-2.62 0-1.636.378-2.615 1.3-2.615.93 0 1.305.979 1.305 2.615z" fill="#000"/></svg>