<svg width="23" height="32" viewBox="0 0 23 32" fill="none" xmlns="http://www.w3.org/2000/svg">
<path d="M2.2395 30.616C1.5995 30.616 1.2795 30.328 1.2795 29.752V28.12L11.8395 16.024C13.4395 14.232 14.2395 12.632 14.2395 11.224C14.2395 10.264 13.8875 9.464 13.1835 8.824C12.4795 8.184 11.5515 7.86399 10.3995 7.86399C8.7355 7.86399 7.3275 8.504 6.1755 9.784C5.5995 10.168 5.0875 10.072 4.6395 9.496L2.5275 6.51999C1.9515 5.752 2.0475 5.08 2.8155 4.504C5.4395 2.328 8.4475 1.23999 11.8395 1.23999C14.8475 1.23999 17.2795 2.07199 19.1355 3.736C21.0555 5.33599 22.0155 7.44799 22.0155 10.072C22.0155 12.696 20.8315 15.448 18.4635 18.328L13.2795 24.472H20.9595C21.5355 24.472 21.8235 24.76 21.8235 25.336V29.752C21.8235 30.328 21.5355 30.616 20.9595 30.616H2.2395Z" fill="white"/>
<path d="M1.2795 28.12L0.902842 27.7912L0.7795 27.9324V28.12H1.2795ZM11.8395 16.024L11.4665 15.691L11.4628 15.6952L11.8395 16.024ZM13.1835 8.824L12.8472 9.19397V9.19397L13.1835 8.824ZM6.1755 9.784L6.45285 10.2L6.50512 10.1652L6.54715 10.1185L6.1755 9.784ZM4.6395 9.496L4.23175 9.78537L4.23809 9.79431L4.24482 9.80297L4.6395 9.496ZM2.5275 6.51999L2.9354 6.23052L2.9275 6.21999L2.5275 6.51999ZM2.8155 4.504L3.1155 4.904L3.12527 4.89667L3.13467 4.88888L2.8155 4.504ZM19.1355 3.736L18.8017 4.10828L18.8085 4.11432L18.8154 4.12011L19.1355 3.736ZM18.4635 18.328L18.8457 18.6505L18.8497 18.6455L18.4635 18.328ZM13.2795 24.472L12.8974 24.1496L12.2034 24.972H13.2795V24.472ZM2.2395 30.116C1.98433 30.116 1.88631 30.0574 1.85398 30.0284C1.83167 30.0083 1.7795 29.9485 1.7795 29.752H0.7795C0.7795 30.1315 0.887329 30.5037 1.18502 30.7716C1.47269 31.0306 1.85467 31.116 2.2395 31.116V30.116ZM1.7795 29.752V28.12H0.7795V29.752H1.7795ZM1.65616 28.4488L12.2162 16.3528L11.4628 15.6952L0.902842 27.7912L1.65616 28.4488ZM12.2125 16.357C13.8411 14.533 14.7395 12.8163 14.7395 11.224H13.7395C13.7395 12.4477 13.0379 13.931 11.4665 15.691L12.2125 16.357ZM14.7395 11.224C14.7395 10.1246 14.3291 9.18976 13.5198 8.45403L12.8472 9.19397C13.4459 9.73824 13.7395 10.4034 13.7395 11.224H14.7395ZM13.5198 8.45403C12.7052 7.71349 11.6483 7.36399 10.3995 7.36399V8.36399C11.4547 8.36399 12.2538 8.6545 12.8472 9.19397L13.5198 8.45403ZM10.3995 7.36399C8.58823 7.36399 7.04691 8.06833 5.80385 9.44952L6.54715 10.1185C7.60809 8.93966 8.88277 8.36399 10.3995 8.36399V7.36399ZM5.89815 9.36797C5.68194 9.51211 5.54161 9.52543 5.45164 9.50856C5.35618 9.49066 5.21317 9.41916 5.03418 9.18903L4.24482 9.80297C4.51383 10.1488 4.85083 10.4133 5.26736 10.4914C5.68939 10.5706 6.09306 10.4399 6.45285 10.2L5.89815 9.36797ZM5.04725 9.20662L2.93525 6.23062L2.11975 6.80937L4.23175 9.78537L5.04725 9.20662ZM2.9275 6.21999C2.68574 5.89765 2.63984 5.66913 2.66247 5.51071C2.68511 5.35228 2.79316 5.14575 3.1155 4.904L2.5155 4.104C2.06984 4.43824 1.74589 4.85571 1.67253 5.36929C1.59916 5.88286 1.79326 6.37434 2.1275 6.81999L2.9275 6.21999ZM3.13467 4.88888C5.66944 2.78687 8.56469 1.73999 11.8395 1.73999V0.739994C8.33031 0.739994 5.20956 1.86912 2.49633 4.11912L3.13467 4.88888ZM11.8395 1.73999C14.7511 1.73999 17.0556 2.54278 18.8017 4.10828L19.4693 3.36371C17.5034 1.6012 14.9439 0.739994 11.8395 0.739994V1.73999ZM18.8154 4.12011C20.615 5.6198 21.5155 7.58789 21.5155 10.072H22.5155C22.5155 7.3081 21.496 5.05219 19.4556 3.35189L18.8154 4.12011ZM21.5155 10.072C21.5155 12.5399 20.4021 15.1829 18.0773 18.0104L18.8497 18.6455C21.2609 15.713 22.5155 12.852 22.5155 10.072H21.5155ZM18.0814 18.0056L12.8974 24.1496L13.6616 24.7944L18.8456 18.6504L18.0814 18.0056ZM13.2795 24.972H20.9595V23.972H13.2795V24.972ZM20.9595 24.972C21.1704 24.972 21.2368 25.0244 21.2539 25.0416C21.2711 25.0587 21.3235 25.1251 21.3235 25.336H22.3235C22.3235 24.9709 22.2319 24.6053 21.9611 24.3344C21.6902 24.0636 21.3246 23.972 20.9595 23.972V24.972ZM21.3235 25.336V29.752H22.3235V25.336H21.3235ZM21.3235 29.752C21.3235 29.9629 21.2711 30.0293 21.2539 30.0464C21.2368 30.0636 21.1704 30.116 20.9595 30.116V31.116C21.3246 31.116 21.6902 31.0244 21.9611 30.7536C22.2319 30.4827 22.3235 30.1171 22.3235 29.752H21.3235ZM20.9595 30.116H2.2395V31.116H20.9595V30.116Z" fill="#179894"/>
</svg>
