<svg width="23" height="33" viewBox="0 0 23 33" fill="none" xmlns="http://www.w3.org/2000/svg">
<path d="M11.0089 31.576C7.29688 31.576 4.25688 30.52 1.88888 28.408C1.37688 27.896 1.34488 27.32 1.79288 26.68L3.90488 23.896C4.28888 23.32 4.83288 23.256 5.53688 23.704L5.82488 23.896C5.95288 23.96 6.14488 24.088 6.40088 24.28C6.72088 24.408 7.04088 24.568 7.36088 24.76C7.74488 24.888 8.16088 25.016 8.60888 25.144C9.12088 25.208 9.60088 25.24 10.0489 25.24C12.7369 25.24 14.0809 24.248 14.0809 22.264C14.0809 20.152 12.5769 19.096 9.56888 19.096H6.78488C5.82488 19.096 5.34488 18.648 5.34488 17.752V14.776C5.34488 13.88 5.82488 13.432 6.78488 13.432H9.56888C10.7849 13.432 11.7449 13.176 12.4489 12.664C13.1529 12.088 13.5049 11.352 13.5049 10.456C13.5049 9.62399 13.1529 8.952 12.4489 8.44C11.8089 7.864 10.9449 7.576 9.85688 7.576C8.51288 7.576 7.26488 8.088 6.11288 9.112C5.53688 9.432 5.05688 9.336 4.67288 8.824L2.36888 6.04C1.66488 5.336 1.69688 4.76 2.46487 4.31199C4.57687 2.26399 7.42488 1.23999 11.0089 1.23999C14.0809 1.23999 16.5769 1.97599 18.4969 3.44799C20.4169 4.856 21.3769 6.776 21.3769 9.20799C21.3769 10.808 20.8649 12.184 19.8409 13.336C18.8809 14.488 17.7609 15.352 16.4809 15.928V16.024C20.3209 17.496 22.2409 19.928 22.2409 23.32C22.2409 25.88 21.1529 27.896 18.9769 29.368C16.8649 30.84 14.2089 31.576 11.0089 31.576Z" fill="white"/>
<path d="M1.88888 28.408L1.53532 28.7616L1.54541 28.7716L1.55607 28.7811L1.88888 28.408ZM1.79288 26.68L1.39453 26.3778L1.38875 26.3854L1.38326 26.3933L1.79288 26.68ZM3.90487 23.896L4.30322 24.1982L4.31244 24.186L4.3209 24.1734L3.90487 23.896ZM5.53688 23.704L5.81429 23.2879L5.80531 23.2822L5.53688 23.704ZM5.82487 23.896L5.54752 24.312L5.57343 24.3293L5.60127 24.3432L5.82487 23.896ZM6.40088 24.28L6.10088 24.68L6.15378 24.7197L6.21518 24.7442L6.40088 24.28ZM7.36088 24.76L7.10363 25.1887L7.15069 25.217L7.20276 25.2343L7.36088 24.76ZM8.60888 25.144L8.47152 25.6248L8.50859 25.6353L8.54685 25.6401L8.60888 25.144ZM12.4489 12.664L12.743 13.0684L12.7545 13.06L12.7655 13.051L12.4489 12.664ZM12.4489 8.44L12.1144 8.81165L12.1337 8.82906L12.1548 8.84437L12.4489 8.44ZM6.11287 9.112L6.3557 9.54907L6.40387 9.52231L6.44506 9.4857L6.11287 9.112ZM4.67288 8.824L5.07287 8.524L5.0657 8.51443L5.05807 8.50522L4.67288 8.824ZM2.36888 6.04L2.75407 5.72121L2.73907 5.70308L2.72243 5.68644L2.36888 6.04ZM2.46488 4.31199L2.71681 4.74388L2.76931 4.71326L2.81295 4.67095L2.46488 4.31199ZM18.4969 3.44799L18.1926 3.84489L18.2012 3.8512L18.4969 3.44799ZM19.8409 13.336L19.4672 13.0038L19.4619 13.0098L19.4568 13.0159L19.8409 13.336ZM16.4809 15.928L16.2757 15.472L15.9809 15.6047V15.928H16.4809ZM16.4809 16.024H15.9809V16.3678L16.3019 16.4909L16.4809 16.024ZM18.9769 29.368L18.6967 28.9538L18.691 28.9578L18.9769 29.368ZM11.0089 31.076C7.39751 31.076 4.48282 30.0515 2.22168 28.0349L1.55607 28.7811C4.03093 30.9885 7.19624 32.076 11.0089 32.076V31.076ZM2.24243 28.0544C2.05039 27.8624 1.98767 27.7004 1.98011 27.5643C1.9722 27.422 2.02015 27.2272 2.20249 26.9667L1.38326 26.3933C1.1176 26.7728 0.957547 27.186 0.981645 27.6197C1.00608 28.0596 1.21536 28.4416 1.53532 28.7616L2.24243 28.0544ZM2.19122 26.9822L4.30322 24.1982L3.50653 23.5938L1.39453 26.3778L2.19122 26.9822ZM4.3209 24.1734C4.45477 23.9725 4.5698 23.9231 4.6593 23.9126C4.77061 23.8995 4.96504 23.9328 5.26844 24.1258L5.80531 23.2822C5.40471 23.0272 4.97514 22.8685 4.54245 22.9194C4.08795 22.9729 3.73898 23.2435 3.48885 23.6187L4.3209 24.1734ZM5.25952 24.12L5.54752 24.312L6.10223 23.48L5.81423 23.288L5.25952 24.12ZM5.60127 24.3432C5.68577 24.3855 5.84692 24.4895 6.10088 24.68L6.70087 23.88C6.44283 23.6865 6.21998 23.5345 6.04848 23.4488L5.60127 24.3432ZM6.21518 24.7442C6.50848 24.8616 6.80463 25.0093 7.10363 25.1887L7.61812 24.3313C7.27712 24.1267 6.93327 23.9544 6.58657 23.8158L6.21518 24.7442ZM7.20276 25.2343C7.59457 25.3649 8.01757 25.4951 8.47152 25.6248L8.74623 24.6632C8.30418 24.5369 7.89519 24.4111 7.51899 24.2857L7.20276 25.2343ZM8.54685 25.6401C9.07642 25.7063 9.57731 25.74 10.0489 25.74V24.74C9.62444 24.74 9.16533 24.7097 8.6709 24.6479L8.54685 25.6401ZM10.0489 25.74C11.4397 25.74 12.5736 25.486 13.3698 24.8983C14.1944 24.2897 14.5809 23.381 14.5809 22.264H13.5809C13.5809 23.131 13.2954 23.7103 12.7759 24.0937C12.2282 24.498 11.346 24.74 10.0489 24.74V25.74ZM14.5809 22.264C14.5809 21.0731 14.1469 20.1154 13.2402 19.4788C12.3657 18.8648 11.1161 18.596 9.56888 18.596V19.596C11.0297 19.596 12.036 19.8552 12.6656 20.2972C13.2628 20.7166 13.5809 21.3429 13.5809 22.264H14.5809ZM9.56888 18.596H6.78487V19.596H9.56888V18.596ZM6.78487 18.596C6.3737 18.596 6.15842 18.4994 6.04603 18.3945C5.94014 18.2956 5.84488 18.1138 5.84488 17.752H4.84488C4.84488 18.2862 4.98961 18.7764 5.36372 19.1255C5.73133 19.4686 6.23605 19.596 6.78487 19.596V18.596ZM5.84488 17.752V14.776H4.84488V17.752H5.84488ZM5.84488 14.776C5.84488 14.4142 5.94014 14.2324 6.04603 14.1335C6.15842 14.0286 6.3737 13.932 6.78487 13.932V12.932C6.23605 12.932 5.73133 13.0594 5.36372 13.4025C4.98961 13.7516 4.84488 14.2417 4.84488 14.776H5.84488ZM6.78487 13.932H9.56888V12.932H6.78487V13.932ZM9.56888 13.932C10.8497 13.932 11.9255 13.6629 12.743 13.0684L12.1548 12.2596C11.5642 12.6891 10.72 12.932 9.56888 12.932V13.932ZM12.7655 13.051C13.5835 12.3817 14.0049 11.5046 14.0049 10.456H13.0049C13.0049 11.1994 12.7222 11.7943 12.1323 12.277L12.7655 13.051ZM14.0049 10.456C14.0049 9.45551 13.5693 8.63659 12.743 8.03563L12.1548 8.84437C12.7365 9.2674 13.0049 9.79248 13.0049 10.456H14.0049ZM12.7834 8.06835C12.0292 7.38964 11.0347 7.076 9.85688 7.076V8.076C10.8551 8.076 11.5885 8.33836 12.1144 8.81165L12.7834 8.06835ZM9.85688 7.076C8.37251 7.076 7.00989 7.64567 5.78069 8.73829L6.44506 9.4857C7.51986 8.53032 8.65324 8.076 9.85688 8.076V7.076ZM5.87005 8.67492C5.64967 8.79735 5.50766 8.80745 5.41893 8.78971C5.33277 8.77247 5.21428 8.71254 5.07287 8.524L4.27288 9.124C4.51547 9.44745 4.82898 9.69152 5.22282 9.77029C5.61409 9.84854 6.00008 9.74664 6.3557 9.54907L5.87005 8.67492ZM5.05807 8.50522L2.75407 5.72121L1.98368 6.35878L4.28768 9.14278L5.05807 8.50522ZM2.72243 5.68644C2.40187 5.36588 2.36015 5.17894 2.36411 5.10773C2.36652 5.06435 2.39555 4.93129 2.71681 4.74388L2.21294 3.88011C1.7662 4.1407 1.39524 4.51964 1.36564 5.05226C1.3376 5.55706 1.63188 6.01011 2.01532 6.39355L2.72243 5.68644ZM2.81295 4.67095C4.8121 2.73237 7.52475 1.73999 11.0089 1.73999V0.739994C7.325 0.739994 4.34165 1.79562 2.1168 3.95304L2.81295 4.67095ZM11.0089 1.73999C14.0009 1.73999 16.3811 2.45595 18.1927 3.8448L18.8011 3.05119C16.7726 1.49604 14.1608 0.739994 11.0089 0.739994V1.73999ZM18.2012 3.8512C19.9895 5.16265 20.8769 6.93123 20.8769 9.20799H21.8769C21.8769 6.62076 20.8442 4.54934 18.7926 3.04479L18.2012 3.8512ZM20.8769 9.20799C20.8769 10.6907 20.4065 11.9471 19.4672 13.0038L20.2146 13.6682C21.3233 12.4209 21.8769 10.9253 21.8769 9.20799H20.8769ZM19.4568 13.0159C18.5419 14.1137 17.4818 14.9293 16.2757 15.472L16.6861 16.384C18.0399 15.7747 19.2198 14.8623 20.225 13.6561L19.4568 13.0159ZM15.9809 15.928V16.024H16.9809V15.928H15.9809ZM16.3019 16.4909C18.1646 17.2049 19.5196 18.1359 20.4084 19.2618C21.2921 20.3811 21.7409 21.7251 21.7409 23.32H22.7409C22.7409 21.5229 22.2297 19.9549 21.1933 18.6422C20.1622 17.3361 18.6371 16.3151 16.6598 15.5571L16.3019 16.4909ZM21.7409 23.32C21.7409 25.7089 20.7396 27.5719 18.6967 28.9539L19.257 29.7821C21.5662 28.2201 22.7409 26.0511 22.7409 23.32H21.7409ZM18.691 28.9578C16.6813 30.3585 14.1317 31.076 11.0089 31.076V32.076C14.2861 32.076 17.0485 31.3215 19.2628 29.7782L18.691 28.9578Z" fill="#179894"/>
</svg>
