<svg width="24" height="32" viewBox="0 0 24 32" fill="none" xmlns="http://www.w3.org/2000/svg">
<path d="M10.9358 30.576C6.90375 30.576 3.83175 29.36 1.71975 26.928C1.27175 26.48 1.23975 26 1.62375 25.488L4.21575 22.32C4.66375 21.68 5.14375 21.616 5.65575 22.128C6.99975 23.472 8.82375 24.144 11.1278 24.144C12.2798 24.144 13.2718 23.792 14.1038 23.088C14.9998 22.384 15.4478 21.52 15.4478 20.496C15.4478 19.408 15.0318 18.544 14.1998 17.904C13.3678 17.264 12.2478 16.944 10.8398 16.944H3.73575C2.77575 16.944 2.29575 16.432 2.29575 15.408V2.064C2.29575 1.488 2.58375 1.2 3.15975 1.2H18.5198C19.0958 1.2 19.3838 1.488 19.3838 2.064V6.288C19.3838 6.864 19.0958 7.152 18.5198 7.152H8.63175V10.896H11.9918C15.4478 10.896 18.1358 11.728 20.0558 13.392C21.9758 15.056 22.9358 17.392 22.9358 20.4C22.9358 23.344 21.8158 25.776 19.5758 27.696C17.3998 29.616 14.5198 30.576 10.9358 30.576Z" fill="white"/>
<path d="M1.71975 26.928L2.09727 26.6002L2.08574 26.5869L2.0733 26.5744L1.71975 26.928ZM1.62375 25.488L1.23677 25.1714L1.23009 25.1796L1.22375 25.188L1.62375 25.488ZM4.21575 22.32L4.60273 22.6366L4.61461 22.6221L4.62537 22.6067L4.21575 22.32ZM5.65575 22.128L5.3022 22.4816H5.3022L5.65575 22.128ZM14.1038 23.088L13.7948 22.6948L13.7877 22.7004L13.7808 22.7063L14.1038 23.088ZM14.1998 17.904L13.8949 18.3003L14.1998 17.904ZM8.63175 7.152V6.652H8.13175V7.152H8.63175ZM8.63175 10.896H8.13175V11.396H8.63175V10.896ZM19.5758 27.696L19.2503 27.3163L19.2449 27.3211L19.5758 27.696ZM10.9358 30.076C7.00919 30.076 4.0912 28.8962 2.09727 26.6002L1.34223 27.2558C3.5723 29.8238 6.79831 31.076 10.9358 31.076V30.076ZM2.0733 26.5744C1.90732 26.4085 1.86432 26.2839 1.85864 26.1987C1.85291 26.1127 1.87953 25.9803 2.02375 25.788L1.22375 25.188C0.983966 25.5077 0.834595 25.8713 0.860857 26.2653C0.887179 26.6601 1.08418 26.9995 1.3662 27.2816L2.0733 26.5744ZM2.01073 25.8046L4.60273 22.6366L3.82877 22.0034L1.23677 25.1714L2.01073 25.8046ZM4.62537 22.6067C4.81693 22.3331 4.94185 22.2924 4.97783 22.2876C4.99863 22.2848 5.09991 22.2793 5.3022 22.4816L6.0093 21.7744C5.69959 21.4647 5.30487 21.2352 4.84567 21.2964C4.40165 21.3556 4.06257 21.6669 3.80613 22.0333L4.62537 22.6067ZM5.3022 22.4816C6.75925 23.9386 8.72116 24.644 11.1278 24.644V23.644C8.92634 23.644 7.24025 23.0054 6.0093 21.7744L5.3022 22.4816ZM11.1278 24.644C12.3907 24.644 13.499 24.2547 14.4267 23.4697L13.7808 22.7063C13.0445 23.3293 12.1688 23.644 11.1278 23.644V24.644ZM14.4127 23.4812C15.4138 22.6946 15.9478 21.6921 15.9478 20.496H14.9478C14.9478 21.3479 14.5857 22.0734 13.7948 22.6948L14.4127 23.4812ZM15.9478 20.496C15.9478 19.2594 15.4648 18.2463 14.5046 17.5077L13.8949 18.3003C14.5987 18.8417 14.9478 19.5566 14.9478 20.496H15.9478ZM14.5046 17.5077C13.5596 16.7807 12.3206 16.444 10.8398 16.444V17.444C12.1749 17.444 13.1759 17.7473 13.8949 18.3003L14.5046 17.5077ZM10.8398 16.444H3.73575V17.444H10.8398V16.444ZM3.73575 16.444C3.34138 16.444 3.13521 16.3404 3.02052 16.218C2.90013 16.0896 2.79575 15.8507 2.79575 15.408H1.79575C1.79575 15.9893 1.93137 16.5184 2.29098 16.902C2.65629 17.2916 3.17012 17.444 3.73575 17.444V16.444ZM2.79575 15.408V2.064H1.79575V15.408H2.79575ZM2.79575 2.064C2.79575 1.85307 2.84814 1.78671 2.8653 1.76955C2.88246 1.75239 2.94882 1.7 3.15975 1.7V0.699999C2.79468 0.699999 2.42904 0.791606 2.1582 1.06245C1.88736 1.33329 1.79575 1.69893 1.79575 2.064H2.79575ZM3.15975 1.7H18.5198V0.699999H3.15975V1.7ZM18.5198 1.7C18.7307 1.7 18.797 1.75239 18.8142 1.76955C18.8314 1.78671 18.8838 1.85307 18.8838 2.064H19.8838C19.8838 1.69893 19.7921 1.33329 19.5213 1.06245C19.2505 0.791606 18.8848 0.699999 18.5198 0.699999V1.7ZM18.8838 2.064V6.288H19.8838V2.064H18.8838ZM18.8838 6.288C18.8838 6.49892 18.8314 6.56528 18.8142 6.58244C18.797 6.5996 18.7307 6.652 18.5198 6.652V7.652C18.8848 7.652 19.2505 7.56039 19.5213 7.28955C19.7921 7.01871 19.8838 6.65307 19.8838 6.288H18.8838ZM18.5198 6.652H8.63175V7.652H18.5198V6.652ZM8.13175 7.152V10.896H9.13175V7.152H8.13175ZM8.63175 11.396H11.9918V10.396H8.63175V11.396ZM11.9918 11.396C15.371 11.396 17.9274 12.2091 19.7283 13.7698L20.3832 13.0142C18.3441 11.2469 15.5245 10.396 11.9918 10.396V11.396ZM19.7283 13.7698C21.5183 15.3212 22.4358 17.5077 22.4358 20.4H23.4358C23.4358 17.2763 22.4332 14.7908 20.3832 13.0142L19.7283 13.7698ZM22.4358 20.4C22.4358 23.1977 21.3798 25.4911 19.2504 27.3164L19.9011 28.0756C22.2517 26.0609 23.4358 23.4903 23.4358 20.4H22.4358ZM19.2449 27.3211C17.1804 29.1427 14.4277 30.076 10.9358 30.076V31.076C14.6118 31.076 17.6191 30.0893 19.9066 28.0709L19.2449 27.3211Z" fill="#179894"/>
</svg>
