<svg width="259" height="184" viewBox="0 0 259 184" fill="none" xmlns="http://www.w3.org/2000/svg">
<circle cx="93.5326" cy="81.5503" r="12.2826" stroke="white" stroke-opacity="0.1" stroke-width="0.5"/>
<circle cx="93.5325" cy="81.5503" r="10.6116" stroke="white" stroke-opacity="0.2" stroke-width="0.5"/>
<circle cx="93.5324" cy="81.5503" r="8.9406" stroke="white" stroke-opacity="0.3" stroke-width="0.5"/>
<circle cx="93.5323" cy="81.5503" r="7.26958" stroke="white" stroke-opacity="0.4" stroke-width="0.5"/>
<circle cx="93.533" cy="81.5503" r="4.17755" fill="white" fill-opacity="0.4"/>
<path d="M31 25.0177H68.5047L94 82.0177" stroke="white" stroke-opacity="0.4"/>
<path d="M34.0948 11.6017H34.5948V11.0592L34.0541 11.1034L34.0948 11.6017ZM32.3308 11.7457V12.2457H32.3512L32.3715 12.244L32.3308 11.7457ZM32.0068 11.4217H32.5068V11.4056L32.5058 11.3895L32.0068 11.4217ZM31.9348 10.3057H31.4348V10.3218L31.4358 10.3379L31.9348 10.3057ZM32.1868 9.9097L31.9187 9.48763L31.8885 9.5068L31.8614 9.53007L32.1868 9.9097ZM34.8508 8.2177V7.7177H34.7054L34.5827 7.79563L34.8508 8.2177ZM34.4548 18.3737C34.3996 18.3737 34.4516 18.3601 34.5193 18.4211C34.5536 18.452 34.5751 18.4879 34.5862 18.5178C34.5962 18.5448 34.5948 18.5587 34.5948 18.5497H33.5948C33.5948 18.7492 33.6526 18.9864 33.8503 19.1643C34.038 19.3333 34.27 19.3737 34.4548 19.3737V18.3737ZM34.5948 18.5497V11.6017H33.5948V18.5497H34.5948ZM34.0541 11.1034L32.2901 11.2474L32.3715 12.244L34.1355 12.1L34.0541 11.1034ZM32.3308 11.2457C32.2999 11.2457 32.3685 11.2383 32.4414 11.3111C32.5142 11.384 32.5068 11.4526 32.5068 11.4217H31.5068C31.5068 11.6068 31.5534 11.8374 31.7342 12.0183C31.9151 12.1991 32.1457 12.2457 32.3308 12.2457V11.2457ZM32.5058 11.3895L32.4338 10.2735L31.4358 10.3379L31.5078 11.4539L32.5058 11.3895ZM32.4348 10.3057C32.4348 10.3657 32.4134 10.3949 32.4196 10.3851C32.4225 10.3807 32.4301 10.3697 32.4458 10.3526C32.4613 10.3356 32.4829 10.3144 32.5122 10.2893L31.8614 9.53007C31.669 9.69495 31.4348 9.95516 31.4348 10.3057H32.4348ZM32.4549 10.3318L35.1189 8.63977L34.5827 7.79563L31.9187 9.48763L32.4549 10.3318ZM34.8508 8.7177H36.6868V7.7177H34.8508V8.7177ZM36.6868 8.7177C36.7177 8.7177 36.6491 8.72509 36.5762 8.65225C36.5034 8.57941 36.5108 8.51077 36.5108 8.5417H37.5108C37.5108 8.35663 37.4642 8.12599 37.2834 7.94515C37.1025 7.76431 36.8719 7.7177 36.6868 7.7177V8.7177ZM36.5108 8.5417V18.5497H37.5108V8.5417H36.5108ZM36.5108 18.5497C36.5108 18.5806 36.5034 18.512 36.5762 18.4391C36.6491 18.3663 36.7177 18.3737 36.6868 18.3737V19.3737C36.8719 19.3737 37.1025 19.3271 37.2834 19.1463C37.4642 18.9654 37.5108 18.7348 37.5108 18.5497H36.5108ZM36.6868 18.3737H34.4548V19.3737H36.6868V18.3737Z" fill="white"/>
<circle cx="63.5326" cy="138.55" r="12.2826" stroke="white" stroke-opacity="0.1" stroke-width="0.5"/>
<circle cx="63.5325" cy="138.55" r="10.6116" stroke="white" stroke-opacity="0.2" stroke-width="0.5"/>
<circle cx="63.5324" cy="138.55" r="8.9406" stroke="white" stroke-opacity="0.3" stroke-width="0.5"/>
<circle cx="63.5323" cy="138.55" r="7.26958" stroke="white" stroke-opacity="0.4" stroke-width="0.5"/>
<circle cx="63.533" cy="138.55" r="4.17755" fill="white" fill-opacity="0.4"/>
<path d="M1 106.018H36.5L63.5 139.018" stroke="white" stroke-opacity="0.4"/>
<path d="M0.979813 98.9377L0.603154 98.6089L0.479813 98.7502V98.9377H0.979813ZM4.93981 94.4017L4.56682 94.0687L4.56315 94.0729L4.93981 94.4017ZM5.44381 91.7017L5.10748 92.0717L5.10748 92.0717L5.44381 91.7017ZM2.81581 92.0617L3.09316 92.4777L3.14543 92.4429L3.18746 92.3962L2.81581 92.0617ZM2.23981 91.9537L1.83206 92.2431L1.8384 92.252L1.84514 92.2607L2.23981 91.9537ZM1.44781 90.8377L1.85571 90.5482L1.84781 90.5377L1.44781 90.8377ZM1.55581 90.0817L1.85581 90.4817L1.86558 90.4744L1.87498 90.4666L1.55581 90.0817ZM7.67581 89.7937L7.34204 90.166L7.34877 90.172L7.35572 90.1778L7.67581 89.7937ZM7.42381 95.2657L7.80599 95.5882L7.81003 95.5833L7.42381 95.2657ZM5.47981 97.5697L5.09767 97.2473L4.40374 98.0697H5.47981V97.5697ZM1.33981 99.3737C1.28464 99.3737 1.33662 99.3601 1.40429 99.4211C1.43864 99.452 1.4601 99.4879 1.47119 99.5178C1.4812 99.5448 1.47981 99.5587 1.47981 99.5497H0.479813C0.479813 99.7492 0.537642 99.9864 0.73533 100.164C0.923003 100.333 1.15499 100.374 1.33981 100.374V99.3737ZM1.47981 99.5497V98.9377H0.479813V99.5497H1.47981ZM1.35647 99.2665L5.31647 94.7305L4.56315 94.0729L0.603154 98.6089L1.35647 99.2665ZM5.31278 94.7347C5.94139 94.0307 6.33981 93.314 6.33981 92.6017H5.33981C5.33981 92.9454 5.13823 93.4287 4.56684 94.0687L5.31278 94.7347ZM6.33981 92.6017C6.33981 92.1023 6.14945 91.6675 5.78015 91.3317L5.10748 92.0717C5.26617 92.2159 5.33981 92.3811 5.33981 92.6017H6.33981ZM5.78015 91.3317C5.40556 90.9912 4.92861 90.8417 4.39981 90.8417V91.8417C4.73502 91.8417 4.95407 91.9322 5.10748 92.0717L5.78015 91.3317ZM4.39981 90.8417C3.62854 90.8417 2.96723 91.146 2.44417 91.7272L3.18746 92.3962C3.5284 92.0174 3.92308 91.8417 4.39981 91.8417V90.8417ZM2.53846 91.6457C2.52009 91.6579 2.51758 91.656 2.53037 91.6526C2.54535 91.6486 2.57117 91.6455 2.60196 91.6513C2.66649 91.6634 2.67348 91.6969 2.63449 91.6467L1.84514 92.2607C1.97414 92.4265 2.16114 92.586 2.41767 92.6341C2.67971 92.6833 2.91337 92.5976 3.09316 92.4777L2.53846 91.6457ZM2.64757 91.6643L1.85557 90.5483L1.04006 91.1271L1.83206 92.2431L2.64757 91.6643ZM1.84781 90.5377C1.81792 90.4978 1.80909 90.4754 1.8074 90.4703C1.80673 90.4683 1.80779 90.4709 1.80847 90.4774C1.80917 90.4842 1.80924 90.4932 1.80779 90.5034C1.80633 90.5136 1.80374 90.5222 1.80117 90.5285C1.79868 90.5347 1.79694 90.5368 1.79816 90.5351C1.8012 90.5307 1.81595 90.5116 1.85581 90.4817L1.25581 89.6817C1.05015 89.8359 0.861206 90.0584 0.817838 90.362C0.77447 90.6656 0.893569 90.932 1.04781 91.1377L1.84781 90.5377ZM1.87498 90.4666C2.76975 89.7246 3.785 89.3577 4.93981 89.3577V88.3577C3.55062 88.3577 2.30988 88.8068 1.23664 89.6968L1.87498 90.4666ZM4.93981 89.3577C5.97139 89.3577 6.75591 89.6405 7.34204 90.166L8.00959 89.4214C7.20371 88.6989 6.16424 88.3577 4.93981 88.3577V89.3577ZM7.35572 90.1778C7.95536 90.6775 8.25581 91.3256 8.25581 92.1697H9.25581C9.25581 91.0458 8.83627 90.1099 7.9959 89.4096L7.35572 90.1778ZM8.25581 92.1697C8.25581 92.9977 7.88243 93.9207 7.0376 94.9481L7.81003 95.5833C8.7412 94.4507 9.25581 93.3097 9.25581 92.1697H8.25581ZM7.04167 94.9433L5.09767 97.2473L5.86196 97.8921L7.80596 95.5881L7.04167 94.9433ZM5.47981 98.0697H8.35981V97.0697H5.47981V98.0697ZM8.35981 98.0697C8.39074 98.0697 8.3221 98.0771 8.24926 98.0043C8.17642 97.9314 8.18381 97.8628 8.18381 97.8937H9.18381C9.18381 97.7086 9.13721 97.478 8.95637 97.2971C8.77553 97.1163 8.54489 97.0697 8.35981 97.0697V98.0697ZM8.18381 97.8937V99.5497H9.18381V97.8937H8.18381ZM8.18381 99.5497C8.18381 99.5806 8.17642 99.512 8.24926 99.4391C8.3221 99.3663 8.39074 99.3737 8.35981 99.3737V100.374C8.54489 100.374 8.77553 100.327 8.95637 100.146C9.13721 99.9654 9.18381 99.7348 9.18381 99.5497H8.18381ZM8.35981 99.3737H1.33981V100.374H8.35981V99.3737Z" fill="white"/>
<circle r="12.2826" transform="matrix(-1 0 0 1 111.533 97.5503)" stroke="white" stroke-opacity="0.1" stroke-width="0.5"/>
<circle r="10.6116" transform="matrix(-1 0 0 1 111.533 97.5503)" stroke="white" stroke-opacity="0.2" stroke-width="0.5"/>
<circle r="8.9406" transform="matrix(-1 0 0 1 111.533 97.5503)" stroke="white" stroke-opacity="0.3" stroke-width="0.5"/>
<circle r="7.26958" transform="matrix(-1 0 0 1 111.533 97.5503)" stroke="white" stroke-opacity="0.4" stroke-width="0.5"/>
<circle r="4.17755" transform="matrix(-1 0 0 1 111.532 97.5503)" fill="white" fill-opacity="0.4"/>
<path d="M236.5 21.0177H202L112 98.0177" stroke="white" stroke-opacity="0.4"/>
<path d="M226.87 14.0457L226.517 14.3993L226.527 14.4093L226.538 14.4188L226.87 14.0457ZM226.834 13.3977L226.436 13.0955L226.43 13.1031L226.425 13.111L226.834 13.3977ZM227.626 12.3537L228.025 12.6559L228.034 12.6437L228.042 12.6311L227.626 12.3537ZM228.238 12.2817L228.516 11.8656L228.507 11.8599L228.238 12.2817ZM228.346 12.3537L228.069 12.7697L228.095 12.787L228.123 12.8009L228.346 12.3537ZM228.562 12.4977L228.262 12.8977L228.315 12.9374L228.377 12.9619L228.562 12.4977ZM228.922 12.6777L228.665 13.1064L228.712 13.1347L228.764 13.152L228.922 12.6777ZM229.39 12.8217L229.253 13.3025L229.29 13.3131L229.328 13.3178L229.39 12.8217ZM230.83 8.1417L231.125 8.54607L231.136 8.53769L231.147 8.52868L230.83 8.1417ZM230.83 6.5577L230.496 6.92935L230.515 6.94676L230.536 6.96207L230.83 6.5577ZM228.454 6.8097L228.697 7.24678L228.745 7.22002L228.787 7.1834L228.454 6.8097ZM227.914 6.7017L228.314 6.4017L228.307 6.39213L228.3 6.38292L227.914 6.7017ZM227.05 5.6577L227.436 5.33891L227.421 5.32079L227.404 5.30414L227.05 5.6577ZM227.086 5.0097L227.338 5.44159L227.391 5.41096L227.435 5.36865L227.086 5.0097ZM233.098 4.6857L232.794 5.08259L232.803 5.0889L233.098 4.6857ZM233.602 8.3937L233.229 8.06152L233.223 8.06748L233.218 8.07361L233.602 8.3937ZM232.342 9.3657L232.137 8.90974L231.842 9.04241V9.3657H232.342ZM232.342 9.4017H231.842V9.74551L232.163 9.86857L232.342 9.4017ZM233.278 14.4057L232.998 13.9915L232.993 13.9955L233.278 14.4057ZM230.29 14.7337C228.999 14.7337 227.984 14.3692 227.203 13.6726L226.538 14.4188C227.532 15.3062 228.798 15.7337 230.29 15.7337V14.7337ZM227.224 13.6921C227.207 13.6751 227.205 13.6684 227.207 13.6736C227.209 13.6763 227.211 13.6814 227.213 13.6886C227.215 13.6959 227.216 13.7039 227.217 13.712C227.217 13.72 227.217 13.7266 227.216 13.7311C227.215 13.7355 227.215 13.7369 227.215 13.735C227.217 13.7308 227.223 13.714 227.244 13.6844L226.425 13.111C226.299 13.2905 226.204 13.5137 226.218 13.7674C226.233 14.0273 226.357 14.2393 226.517 14.3993L227.224 13.6921ZM227.233 13.6999L228.025 12.6559L227.228 12.0515L226.436 13.0955L227.233 13.6999ZM228.042 12.6311C228.051 12.6181 228.049 12.6262 228.03 12.6393C228.008 12.6542 227.978 12.6665 227.946 12.6703C227.916 12.6738 227.9 12.6682 227.905 12.6696C227.91 12.6714 227.932 12.6793 227.97 12.7035L228.507 11.8599C228.326 11.7449 228.092 11.6462 227.829 11.6771C227.545 11.7106 227.341 11.8812 227.21 12.0764L228.042 12.6311ZM227.961 12.6977L228.069 12.7697L228.624 11.9377L228.516 11.8657L227.961 12.6977ZM228.123 12.8009C228.121 12.7998 228.131 12.8052 228.159 12.8237C228.185 12.8411 228.219 12.8653 228.262 12.8977L228.862 12.0977C228.764 12.0242 228.662 11.9522 228.57 11.9065L228.123 12.8009ZM228.377 12.9619C228.47 12.9993 228.566 13.047 228.665 13.1064L229.18 12.249C229.039 12.1644 228.895 12.0921 228.748 12.0335L228.377 12.9619ZM228.764 13.152C228.916 13.2026 229.079 13.2528 229.253 13.3025L229.528 12.3409C229.366 12.2946 229.217 12.2488 229.081 12.2034L228.764 13.152ZM229.328 13.3178C229.538 13.344 229.739 13.3577 229.93 13.3577V12.3577C229.786 12.3577 229.627 12.3474 229.452 12.3256L229.328 13.3178ZM229.93 13.3577C230.481 13.3577 230.985 13.2587 231.361 12.981C231.766 12.6824 231.942 12.2387 231.942 11.7417H230.942C230.942 11.9887 230.867 12.103 230.768 12.1764C230.64 12.2707 230.388 12.3577 229.93 12.3577V13.3577ZM231.942 11.7417C231.942 11.2108 231.743 10.7481 231.307 10.4415C230.902 10.1575 230.358 10.0537 229.75 10.0537V11.0537C230.271 11.0537 230.573 11.1479 230.732 11.2599C230.859 11.3493 230.942 11.4806 230.942 11.7417H231.942ZM229.75 10.0537H228.706V11.0537H229.75V10.0537ZM228.706 10.0537C228.654 10.0537 228.627 10.0474 228.619 10.0448C228.615 10.0436 228.617 10.0438 228.622 10.0466C228.627 10.0495 228.634 10.0545 228.643 10.0622C228.651 10.0699 228.658 10.0783 228.663 10.0864C228.668 10.0944 228.67 10.1002 228.671 10.102C228.672 10.1048 228.666 10.0904 228.666 10.0497H227.666C227.666 10.3039 227.736 10.5841 227.96 10.7932C228.178 10.9963 228.458 11.0537 228.706 11.0537V10.0537ZM228.666 10.0497V8.9337H227.666V10.0497H228.666ZM228.666 8.9337C228.666 8.89298 228.672 8.8786 228.671 8.88137C228.67 8.88319 228.668 8.88895 228.663 8.89695C228.658 8.9051 228.651 8.91353 228.643 8.92123C228.634 8.92887 228.627 8.9339 228.622 8.93683C228.617 8.93965 228.615 8.93976 228.619 8.93863C228.627 8.93603 228.654 8.9297 228.706 8.9297V7.9297C228.458 7.9297 228.178 7.98707 227.96 8.19017C227.736 8.39934 227.666 8.67945 227.666 8.9337H228.666ZM228.706 8.9297H229.75V7.9297H228.706V8.9297ZM229.75 8.9297C230.271 8.9297 230.747 8.82056 231.125 8.54607L230.536 7.73733C230.386 7.84684 230.142 7.9297 229.75 7.9297V8.9297ZM231.147 8.52868C231.525 8.21939 231.726 7.80229 231.726 7.3137H230.726C230.726 7.49711 230.664 7.63201 230.514 7.75472L231.147 8.52868ZM231.726 7.3137C231.726 6.83321 231.511 6.4343 231.125 6.15333L230.536 6.96207C230.678 7.0651 230.726 7.17018 230.726 7.3137H231.726ZM231.165 6.18605C230.811 5.86734 230.356 5.7337 229.858 5.7337V6.7337C230.177 6.7337 230.37 6.81606 230.496 6.92935L231.165 6.18605ZM229.858 5.7337C229.214 5.7337 228.631 5.98338 228.122 6.43599L228.787 7.1834C229.141 6.86802 229.495 6.7337 229.858 6.7337V5.7337ZM228.212 6.37262C228.171 6.39505 228.194 6.37015 228.255 6.38241C228.284 6.3881 228.305 6.39923 228.317 6.40755C228.327 6.41484 228.325 6.4163 228.314 6.4017L227.514 7.0017C227.637 7.16516 227.816 7.31422 228.059 7.36299C228.301 7.41124 228.522 7.34434 228.697 7.24678L228.212 6.37262ZM228.3 6.38292L227.436 5.33891L226.665 5.97648L227.529 7.02048L228.3 6.38292ZM227.404 5.30414C227.383 5.28363 227.369 5.26719 227.36 5.25496C227.355 5.24893 227.352 5.24429 227.35 5.24105C227.348 5.2378 227.347 5.23621 227.347 5.23628C227.347 5.23636 227.348 5.23833 227.349 5.24217C227.351 5.24604 227.353 5.2519 227.355 5.25968C227.359 5.27567 227.362 5.29821 227.361 5.32543C227.359 5.353 227.353 5.37965 227.344 5.40346C227.334 5.42679 227.324 5.44307 227.316 5.45252C227.303 5.46925 227.302 5.46263 227.338 5.44159L226.835 4.57781C226.628 4.6984 226.382 4.91734 226.362 5.26996C226.344 5.59476 226.533 5.84781 226.697 6.01125L227.404 5.30414ZM227.435 5.36865C228.114 4.71008 229.046 4.3577 230.29 4.3577V3.3577C228.847 3.3577 227.643 3.77332 226.738 4.65075L227.435 5.36865ZM230.29 4.3577C231.362 4.3577 232.183 4.61366 232.794 5.0825L233.403 4.28889C232.574 3.65374 231.522 3.3577 230.29 3.3577V4.3577ZM232.803 5.0889C233.391 5.52035 233.678 6.08893 233.678 6.8457H234.678C234.678 5.77847 234.246 4.90705 233.394 4.2825L232.803 5.0889ZM233.678 6.8457C233.678 7.32835 233.528 7.72479 233.229 8.06152L233.976 8.72588C234.445 8.19861 234.678 7.56304 234.678 6.8457H233.678ZM233.218 8.07361C232.903 8.4514 232.543 8.72697 232.137 8.90974L232.548 9.82166C233.101 9.57243 233.581 9.2 233.987 8.71379L233.218 8.07361ZM231.842 9.3657V9.4017H232.842V9.3657H231.842ZM232.163 9.86857C232.826 10.1226 233.281 10.4436 233.57 10.8095C233.854 11.1688 234.002 11.6028 234.002 12.1377H235.002C235.002 11.4006 234.791 10.7426 234.355 10.1899C233.924 9.6438 233.299 9.23279 232.521 8.93483L232.163 9.86857ZM234.002 12.1377C234.002 12.9266 233.681 13.5296 232.998 13.9916L233.559 14.8198C234.508 14.1778 235.002 13.2688 235.002 12.1377H234.002ZM232.993 13.9955C232.303 14.4762 231.413 14.7337 230.29 14.7337V15.7337C231.568 15.7337 232.67 15.4392 233.564 14.8159L232.993 13.9955Z" fill="white"/>
<circle r="12.2826" transform="matrix(-1 0 0 1 141.533 122.55)" stroke="white" stroke-opacity="0.1" stroke-width="0.5"/>
<circle r="10.6116" transform="matrix(-1 0 0 1 141.533 122.55)" stroke="white" stroke-opacity="0.2" stroke-width="0.5"/>
<circle r="8.9406" transform="matrix(-1 0 0 1 141.533 122.55)" stroke="white" stroke-opacity="0.3" stroke-width="0.5"/>
<circle r="7.26958" transform="matrix(-1 0 0 1 141.533 122.55)" stroke="white" stroke-opacity="0.4" stroke-width="0.5"/>
<circle r="4.17755" transform="matrix(-1 0 0 1 141.532 122.55)" fill="white" fill-opacity="0.4"/>
<path d="M259 91H226.5L142 123" stroke="white" stroke-opacity="0.4"/>
<path d="M253.394 82.804H253.894V82.304H253.394V82.804ZM248.138 80.68L247.77 80.3413L247.638 80.4848V80.68H248.138ZM254.006 74.308L253.652 73.9544L253.645 73.9617L253.638 73.9693L254.006 74.308ZM256.094 80.644H255.594V81.144H256.094V80.644ZM256.094 82.804V82.304H255.594V82.804H256.094ZM250.766 80.68L250.393 80.3473L249.65 81.18H250.766V80.68ZM253.43 80.68V81.18H253.93V80.68H253.43ZM253.43 77.692H253.93V76.3799L253.057 77.3593L253.43 77.692ZM253.754 84.356C253.699 84.356 253.751 84.3424 253.818 84.4034C253.853 84.4343 253.874 84.4702 253.885 84.5001C253.895 84.5271 253.894 84.541 253.894 84.532H252.894C252.894 84.7315 252.952 84.9687 253.149 85.1466C253.337 85.3156 253.569 85.356 253.754 85.356V84.356ZM253.894 84.532V82.804H252.894V84.532H253.894ZM253.394 82.304H248.462V83.304H253.394V82.304ZM248.462 82.304C248.417 82.304 248.477 82.2928 248.551 82.3583C248.589 82.3918 248.613 82.4314 248.626 82.4664C248.638 82.4986 248.638 82.5184 248.638 82.516H247.638C247.638 82.7053 247.694 82.9343 247.887 83.1057C248.068 83.2672 248.29 83.304 248.462 83.304V82.304ZM248.638 82.516V80.68H247.638V82.516H248.638ZM248.506 81.0187L254.374 74.6467L253.638 73.9693L247.77 80.3413L248.506 81.0187ZM254.359 74.6616C254.345 74.6764 254.326 74.6883 254.307 74.6952C254.291 74.7015 254.284 74.7 254.294 74.7V73.7C254.067 73.7 253.835 73.7721 253.652 73.9544L254.359 74.6616ZM254.294 74.7H255.77V73.7H254.294V74.7ZM255.77 74.7C255.801 74.7 255.732 74.7074 255.659 74.6346C255.586 74.5617 255.594 74.4931 255.594 74.524H256.594C256.594 74.3389 256.547 74.1083 256.366 73.9274C256.186 73.7466 255.955 73.7 255.77 73.7V74.7ZM255.594 74.524V80.644H256.594V74.524H255.594ZM256.094 81.144H257.534V80.144H256.094V81.144ZM257.534 81.144C257.578 81.144 257.518 81.1552 257.445 81.0897C257.407 81.0562 257.383 81.0166 257.369 80.9816C257.357 80.9494 257.358 80.9296 257.358 80.932H258.358C258.358 80.7427 258.302 80.5137 258.109 80.3423C257.927 80.1808 257.705 80.144 257.534 80.144V81.144ZM257.358 80.932V82.48H258.358V80.932H257.358ZM257.358 82.48C257.358 82.5109 257.35 82.4423 257.423 82.3694C257.496 82.2966 257.565 82.304 257.534 82.304V83.304C257.719 83.304 257.95 83.2574 258.13 83.0766C258.311 82.8957 258.358 82.6651 258.358 82.48H257.358ZM257.534 82.304H256.094V83.304H257.534V82.304ZM255.594 82.804V84.532H256.594V82.804H255.594ZM255.594 84.532C255.594 84.5629 255.586 84.4943 255.659 84.4214C255.732 84.3486 255.801 84.356 255.77 84.356V85.356C255.955 85.356 256.186 85.3094 256.366 85.1286C256.547 84.9477 256.594 84.7171 256.594 84.532H255.594ZM255.77 84.356H253.754V85.356H255.77V84.356ZM250.766 81.18H253.43V80.18H250.766V81.18ZM253.93 80.68V77.692H252.93V80.68H253.93ZM253.057 77.3593L250.393 80.3473L251.139 81.0127L253.803 78.0247L253.057 77.3593Z" fill="white"/>
<circle r="12.2826" transform="matrix(-1 0 0 1 136.533 170.55)" stroke="white" stroke-opacity="0.1" stroke-width="0.5"/>
<circle r="10.6116" transform="matrix(-1 0 0 1 136.533 170.55)" stroke="white" stroke-opacity="0.2" stroke-width="0.5"/>
<circle r="8.9406" transform="matrix(-1 0 0 1 136.533 170.55)" stroke="white" stroke-opacity="0.3" stroke-width="0.5"/>
<circle r="7.26958" transform="matrix(-1 0 0 1 136.533 170.55)" stroke="white" stroke-opacity="0.4" stroke-width="0.5"/>
<circle r="4.17755" transform="matrix(-1 0 0 1 136.532 170.55)" fill="white" fill-opacity="0.4"/>
<path d="M259 153.018H215.722L136 171.018" stroke="white" stroke-opacity="0.4"/>
<path d="M249.145 145.866L249.522 145.538L249.511 145.525L249.498 145.512L249.145 145.866ZM249.109 145.326L248.722 145.009L248.715 145.017L248.709 145.026L249.109 145.326ZM250.081 144.138L250.468 144.454L250.48 144.44L250.491 144.424L250.081 144.138ZM250.621 144.066L250.267 144.419L250.267 144.419L250.621 144.066ZM253.789 144.426L253.48 144.033L253.473 144.038L253.466 144.044L253.789 144.426ZM253.825 142.482L253.52 142.878H253.52L253.825 142.482ZM251.737 138.45V137.95H251.237V138.45H251.737ZM251.737 139.854H251.237V140.354H251.737V139.854ZM255.841 146.154L255.515 145.774L255.51 145.779L255.841 146.154ZM252.601 146.734C251.194 146.734 250.196 146.314 249.522 145.538L248.767 146.194C249.677 147.241 250.983 147.734 252.601 147.734V146.734ZM249.498 145.512C249.485 145.499 249.487 145.497 249.492 145.508C249.499 145.52 249.507 145.542 249.509 145.571C249.511 145.601 249.506 145.623 249.501 145.635C249.498 145.645 249.497 145.642 249.509 145.626L248.709 145.026C248.589 145.185 248.495 145.394 248.511 145.638C248.527 145.883 248.649 146.077 248.791 146.219L249.498 145.512ZM249.496 145.642L250.468 144.454L249.694 143.821L248.722 145.009L249.496 145.642ZM250.491 144.424C250.512 144.393 250.521 144.39 250.511 144.397C250.5 144.405 250.465 144.428 250.408 144.435C250.349 144.443 250.301 144.43 250.273 144.418C250.25 144.407 250.249 144.401 250.267 144.419L250.974 143.712C250.825 143.562 250.585 143.403 250.276 143.444C249.982 143.483 249.788 143.685 249.671 143.851L250.491 144.424ZM250.267 144.419C250.884 145.036 251.706 145.322 252.673 145.322V144.322C251.911 144.322 251.365 144.103 250.974 143.712L250.267 144.419ZM252.673 145.322C253.216 145.322 253.704 145.152 254.112 144.807L253.466 144.044C253.25 144.227 252.994 144.322 252.673 144.322V145.322ZM254.098 144.819C254.539 144.472 254.793 144.01 254.793 143.454H253.793C253.793 143.666 253.711 143.851 253.48 144.033L254.098 144.819ZM254.793 143.454C254.793 142.897 254.57 142.424 254.13 142.085L253.52 142.878C253.704 143.019 253.793 143.194 253.793 143.454H254.793ZM254.13 142.085C253.705 141.758 253.166 141.622 252.565 141.622V142.622C253.02 142.622 253.321 142.725 253.52 142.878L254.13 142.085ZM252.565 141.622H249.901V142.622H252.565V141.622ZM249.901 141.622C249.854 141.622 249.834 141.615 249.832 141.615C249.832 141.614 249.835 141.616 249.841 141.62C249.848 141.624 249.854 141.629 249.861 141.636C249.874 141.65 249.875 141.659 249.872 141.649C249.868 141.636 249.861 141.604 249.861 141.546H248.861C248.861 141.807 248.922 142.096 249.131 142.32C249.346 142.549 249.635 142.622 249.901 142.622V141.622ZM249.861 141.546V136.542H248.861V141.546H249.861ZM249.861 136.542C249.861 136.511 249.868 136.579 249.795 136.652C249.723 136.725 249.654 136.718 249.685 136.718V135.718C249.5 135.718 249.269 135.764 249.088 135.945C248.908 136.126 248.861 136.357 248.861 136.542H249.861ZM249.685 136.718H255.445V135.718H249.685V136.718ZM255.445 136.718C255.476 136.718 255.407 136.725 255.334 136.652C255.262 136.579 255.269 136.511 255.269 136.542H256.269C256.269 136.357 256.222 136.126 256.041 135.945C255.861 135.764 255.63 135.718 255.445 135.718V136.718ZM255.269 136.542V138.126H256.269V136.542H255.269ZM255.269 138.126C255.269 138.157 255.262 138.088 255.334 138.015C255.407 137.942 255.476 137.95 255.445 137.95V138.95C255.63 138.95 255.861 138.903 256.041 138.722C256.222 138.541 256.269 138.311 256.269 138.126H255.269ZM255.445 137.95H251.737V138.95H255.445V137.95ZM251.237 138.45V139.854H252.237V138.45H251.237ZM251.737 140.354H252.997V139.354H251.737V140.354ZM252.997 140.354C254.216 140.354 255.093 140.647 255.693 141.168L256.348 140.412C255.509 139.685 254.37 139.354 252.997 139.354V140.354ZM255.693 141.168C256.283 141.679 256.601 142.405 256.601 143.418H257.601C257.601 142.174 257.198 141.148 256.348 140.412L255.693 141.168ZM256.601 143.418C256.601 144.375 256.245 145.149 255.516 145.774L256.166 146.533C257.117 145.719 257.601 144.668 257.601 143.418H256.601ZM255.51 145.779C254.806 146.4 253.853 146.734 252.601 146.734V147.734C254.037 147.734 255.244 147.347 256.172 146.529L255.51 145.779Z" fill="white"/>
</svg>
