<svg width="157" height="58" viewBox="0 0 157 58" fill="none" xmlns="http://www.w3.org/2000/svg"><path fill-rule="evenodd" clip-rule="evenodd" d="M126.802.367a29.02 29.02 0 00-19.187 8.41c-11.337 11.257-11.337 29.506 0 40.762a29.02 29.02 0 0019.187 8.41V.367zm21.871 8.41a29.025 29.025 0 00-19.187-8.41V57.95a29.024 29.024 0 0019.187-8.41c11.337-11.256 11.337-29.505 0-40.761z" fill="#3FCFD5"/><path fill-rule="evenodd" clip-rule="evenodd" d="M119.338 24.93v.618c0 1.602-.31 2.837-2.35 5.253l-4.108 4.917h6.658v2.048h-9.547v-1.825l5.665-7.107c1.076-1.349 1.275-1.937 1.275-3.258v-.505c0-1.797-.876-2.5-2.945-2.5-1.106 0-2.578.31-3.57.617v-2.05c1.248-.338 2.578-.59 3.57-.59 3.682 0 5.354 1.488 5.354 4.383h-.002zm17.93 7.248h5.156V23.61l-5.156 8.568zm7.478 0h1.729v1.966h-1.729v3.622h-2.352v-3.622h-7.703v-1.658l7.307-11.602h2.748v11.294z" fill="#fff"/><path fill-rule="evenodd" clip-rule="evenodd" d="M3.75 38.743h9.805v2.806H.544V17.056H3.75v21.687zm24.09 2.806h3.207V17.056H27.84v24.493zm28.8-12.639l10.444 12.64h-4.109l-9.654-12.004v12.003h-3.205V17.056h3.206v11.816l9.199-11.816h3.583L56.639 28.91zm22.873 12.64h3.205V17.055h-3.206l.001 24.493z" fill="#000"/></svg>