<svg width="195" height="72" viewBox="0 0 195 72" fill="none" xmlns="http://www.w3.org/2000/svg"><path fill-rule="evenodd" clip-rule="evenodd" d="M157.493.454c-8.982.399-17.486 4.112-23.831 10.407-14.081 13.926-14.081 36.506 0 50.432 6.345 6.295 14.849 10.009 23.831 10.407V.454zm27.165 10.407C178.313 4.567 169.809.853 160.827.454V71.7c8.982-.4 17.486-4.113 23.831-10.407 14.081-13.926 14.081-36.506 0-50.432z" fill="#3FCFD5"/><path fill-rule="evenodd" clip-rule="evenodd" d="M148.223 30.846v.765c0 1.98-.386 3.51-2.919 6.499l-5.103 6.083h8.27v2.535h-11.858v-2.26l7.037-8.792c1.336-1.669 1.582-2.397 1.582-4.03v-.626c0-2.224-1.088-3.094-3.658-3.094-1.373 0-3.202.383-4.433.765v-2.537c1.55-.418 3.202-.73 4.433-.73 4.574 0 6.651 1.841 6.651 5.422h-.002zm22.269 8.967h6.404V29.212l-6.404 10.6zm9.288 0h2.147v2.433h-2.147v4.482h-2.921v-4.482h-9.567v-2.052l9.075-14.355h3.413v13.974z" fill="#fff"/><path fill-rule="evenodd" clip-rule="evenodd" d="M4.658 47.936h12.178v3.472H.676V21.102h3.982v26.834zm29.921 3.472h3.982V21.102H34.58v30.306zm35.77-15.639l12.971 15.64h-5.103l-11.99-14.853v14.852h-3.98V21.102h3.982v14.62l11.425-14.62h4.45L70.348 35.77zm28.41 15.639h3.98V21.102h-3.982l.002 30.306z" fill="#000"/></svg>