<svg width="28" height="31" viewBox="0 0 28 31" fill="none" xmlns="http://www.w3.org/2000/svg">
<path d="M16.0104 29.616C15.3704 29.616 15.0504 29.328 15.0504 28.752V24.144H1.89838C1.32238 24.144 1.03438 23.888 1.03438 23.376V18.48L16.6824 1.488C16.8744 1.296 17.1304 1.2 17.4504 1.2H21.3864C21.9624 1.2 22.2504 1.488 22.2504 2.064V18.384H26.0904C26.6664 18.384 26.9544 18.64 26.9544 19.152V23.28C26.9544 23.856 26.6664 24.144 26.0904 24.144H22.2504V28.752C22.2504 29.328 21.9624 29.616 21.3864 29.616H16.0104ZM8.04238 18.48H15.1464V10.512L8.04238 18.48Z" fill="white"/>
<path d="M15.0504 24.144H15.5504V23.644H15.0504V24.144ZM1.03438 18.48L0.666575 18.1413L0.534375 18.2848V18.48H1.03438ZM16.6824 1.488L16.3288 1.13444L16.3215 1.14172L16.3146 1.14929L16.6824 1.488ZM22.2504 18.384H21.7504V18.884H22.2504V18.384ZM22.2504 24.144V23.644H21.7504V24.144H22.2504ZM8.04238 18.48L7.66917 18.1473L6.92672 18.98H8.04238V18.48ZM15.1464 18.48V18.98H15.6464V18.48H15.1464ZM15.1464 10.512H15.6464V9.19985L14.7732 10.1793L15.1464 10.512ZM16.0104 29.116C15.7552 29.116 15.6572 29.0574 15.6249 29.0284C15.6025 29.0083 15.5504 28.9485 15.5504 28.752H14.5504C14.5504 29.1315 14.6582 29.5037 14.9559 29.7716C15.2436 30.0306 15.6255 30.116 16.0104 30.116V29.116ZM15.5504 28.752V24.144H14.5504V28.752H15.5504ZM15.0504 23.644H1.89838V24.644H15.0504V23.644ZM1.89838 23.644C1.67389 23.644 1.59892 23.5928 1.58256 23.5783C1.57742 23.5737 1.53438 23.5387 1.53438 23.376H0.534375C0.534375 23.7253 0.635331 24.0743 0.918194 24.3257C1.18983 24.5672 1.54686 24.644 1.89838 24.644V23.644ZM1.53438 23.376V18.48H0.534375V23.376H1.53438ZM1.40217 18.8187L17.0502 1.8267L16.3146 1.14929L0.666575 18.1413L1.40217 18.8187ZM17.0359 1.84155C17.1176 1.75992 17.2375 1.7 17.4504 1.7V0.699999C17.0233 0.699999 16.6312 0.832075 16.3288 1.13444L17.0359 1.84155ZM17.4504 1.7H21.3864V0.699999H17.4504V1.7ZM21.3864 1.7C21.5973 1.7 21.6637 1.75239 21.6808 1.76955C21.698 1.78671 21.7504 1.85307 21.7504 2.064H22.7504C22.7504 1.69893 22.6588 1.33329 22.3879 1.06245C22.1171 0.791606 21.7514 0.699999 21.3864 0.699999V1.7ZM21.7504 2.064V18.384H22.7504V2.064H21.7504ZM22.2504 18.884H26.0904V17.884H22.2504V18.884ZM26.0904 18.884C26.3149 18.884 26.3898 18.9352 26.4062 18.9497C26.4113 18.9543 26.4544 18.9893 26.4544 19.152H27.4544C27.4544 18.8027 27.3534 18.4537 27.0706 18.2023C26.7989 17.9608 26.4419 17.884 26.0904 17.884V18.884ZM26.4544 19.152V23.28H27.4544V19.152H26.4544ZM26.4544 23.28C26.4544 23.4909 26.402 23.5573 26.3848 23.5744C26.3677 23.5916 26.3013 23.644 26.0904 23.644V24.644C26.4555 24.644 26.8211 24.5524 27.0919 24.2815C27.3628 24.0107 27.4544 23.6451 27.4544 23.28H26.4544ZM26.0904 23.644H22.2504V24.644H26.0904V23.644ZM21.7504 24.144V28.752H22.7504V24.144H21.7504ZM21.7504 28.752C21.7504 28.9629 21.698 29.0293 21.6808 29.0464C21.6637 29.0636 21.5973 29.116 21.3864 29.116V30.116C21.7514 30.116 22.1171 30.0244 22.3879 29.7536C22.6588 29.4827 22.7504 29.1171 22.7504 28.752H21.7504ZM21.3864 29.116H16.0104V30.116H21.3864V29.116ZM8.04238 18.98H15.1464V17.98H8.04238V18.98ZM15.6464 18.48V10.512H14.6464V18.48H15.6464ZM14.7732 10.1793L7.66917 18.1473L8.41558 18.8127L15.5196 10.8447L14.7732 10.1793Z" fill="#179894"/>
</svg>
