<svg width="33" height="31" viewBox="0 0 33 31" fill="none" xmlns="http://www.w3.org/2000/svg">
<path d="M12.2857 29.0001C12.9958 29.0001 13.5714 28.4245 13.5714 27.7144C13.5714 27.0043 12.9958 26.4287 12.2857 26.4287C11.5756 26.4287 11 27.0043 11 27.7144C11 28.4245 11.5756 29.0001 12.2857 29.0001Z" fill="white" stroke="white" stroke-width="4" stroke-linecap="round" stroke-linejoin="round"/>
<path d="M26.4302 29.0001C27.1403 29.0001 27.716 28.4245 27.716 27.7144C27.716 27.0043 27.1403 26.4287 26.4302 26.4287C25.7202 26.4287 25.1445 27.0043 25.1445 27.7144C25.1445 28.4245 25.7202 29.0001 26.4302 29.0001Z" fill="white" stroke="white" stroke-width="4" stroke-linecap="round" stroke-linejoin="round"/>
<path d="M2 2H7.14286L10.5886 19.2157C10.7061 19.8077 11.0282 20.3394 11.4983 20.7178C11.9684 21.0962 12.5566 21.2973 13.16 21.2857H25.6571C26.2605 21.2973 26.8488 21.0962 27.3189 20.7178C27.789 20.3394 28.111 19.8077 28.2286 19.2157L30.2857 8.42857H8.42857" stroke="white" stroke-width="4" stroke-linecap="round" stroke-linejoin="round"/>
</svg>
