<svg width="44" height="44" viewBox="0 0 44 44" fill="none" xmlns="http://www.w3.org/2000/svg"><circle cx="22" cy="22" r="21" fill="#EEB33B" stroke="#EEB33B" stroke-width="2"/><mask id="path-2-inside-1" fill="#fff"><path d="M12.833 21.55h16.625l-6.366-6.912a1.046 1.046 0 01-.029-1.343.764.764 0 011.179-.033l7.27 7.894c.314.36.488.836.488 1.344 0 .507-.174.985-.503 1.36l-7.256 7.878a.778.778 0 01-.574.262.786.786 0 01-.604-.295c-.318-.38-.305-.98.029-1.343l6.392-6.912h-16.65c-.46 0-.834-.425-.834-.95 0-.524.373-.95.833-.95z"/></mask><path d="M12.833 21.55h16.625l-6.366-6.912a1.046 1.046 0 01-.029-1.343.764.764 0 011.179-.033l7.27 7.894c.314.36.488.836.488 1.344 0 .507-.174.985-.503 1.36l-7.256 7.878a.778.778 0 01-.574.262.786.786 0 01-.604-.295c-.318-.38-.305-.98.029-1.343l6.392-6.912h-16.65c-.46 0-.834-.425-.834-.95 0-.524.373-.95.833-.95z" fill="#CDCDCD"/><path d="M29.458 21.55l5.885-5.42L47.7 29.55H29.459v-8zm-6.366-6.912l-5.884 5.42 5.884-5.42zm-.029-1.343l6.14 5.129-6.14-5.13zm1.179-.033l5.881-5.423.003.004-5.884 5.419zm7.27 7.894l5.885-5.419.067.073.065.075-6.017 5.271zm-.015 2.704l6.01 5.279-.061.07-.064.07-5.885-5.42zm-7.256 7.878l-5.887-5.417.003-.003 5.884 5.42zm-1.178-.033l6.139-5.13.002.003-6.141 5.127zm.029-1.343l-5.885-5.42.006-.005.005-.007 5.874 5.432zm6.392-6.912v-8H47.78L35.358 28.882l-5.873-5.432zm-16.65-9.9h16.624v16H12.833v-16zm10.74 13.42l-6.367-6.912 11.77-10.84 6.366 6.913-11.77 10.839zm-6.367-6.912c-3.08-3.345-3.15-8.46-.283-11.893l12.278 10.26a6.976 6.976 0 001.63-4.623 6.988 6.988 0 00-1.855-4.583l-11.77 10.839zm-.283-11.893c3.376-4.04 9.55-4.282 13.199-.326L18.36 18.685a7.224 7.224 0 005.511 2.312 7.213 7.213 0 005.332-2.573L16.924 8.165zm13.203-.322l7.27 7.894-11.77 10.839-7.27-7.895 11.77-10.838zm7.402 8.042A10.03 10.03 0 0140 22.5H24a5.97 5.97 0 001.494 3.928L37.53 15.885zM40 22.5a10.04 10.04 0 01-2.492 6.639L25.486 18.58A5.96 5.96 0 0024 22.5h16zm-2.618 6.78l-7.256 7.877-11.77-10.839 7.257-7.878 11.769 10.84zm-7.253 7.874A8.777 8.777 0 0123.667 40V24a7.223 7.223 0 00-5.313 2.321l11.775 10.833zM23.667 40a8.785 8.785 0 01-6.746-3.169l12.284-10.253A7.216 7.216 0 0023.666 24v16zm-6.743-3.166c-2.868-3.432-2.797-8.547.283-11.891l11.77 10.839a6.956 6.956 0 00.225-9.206L16.924 36.834zm.294-11.904l6.393-6.912 11.747 10.864-6.393 6.912L17.218 24.93zm12.266 6.52h-16.65v-16h16.65v16zm-16.65 0C7.002 31.45 4 26.426 4 22.5h16c0-2.877-2.256-7.05-7.167-7.05v16zM4 22.5c0-3.926 3.003-8.95 8.833-8.95v16c4.911 0 7.167-4.173 7.167-7.05H4z" fill="#fff" mask="url(#path-2-inside-1)"/></svg>