<svg width="15" height="31" viewBox="0 0 15 31" fill="none" xmlns="http://www.w3.org/2000/svg">
<path d="M7.54613 29.6336C6.90613 29.6336 6.58613 29.3456 6.58613 28.7696V10.2416L1.88213 10.6256C1.30613 10.6256 1.01813 10.3376 1.01813 9.76158L0.826125 6.78557C0.826125 6.46557 1.05013 6.11357 1.49813 5.72958L8.60213 1.21758H13.4981C14.0741 1.21758 14.3621 1.50558 14.3621 2.08158V28.7696C14.3621 29.3456 14.0741 29.6336 13.4981 29.6336H7.54613Z" fill="white"/>
<path d="M6.58613 10.2416H7.08613V9.69909L6.54544 9.74323L6.58613 10.2416ZM1.88212 10.6256V11.1256H1.9025L1.92281 11.1239L1.88212 10.6256ZM1.01813 9.76158H1.51813V9.74546L1.51709 9.72939L1.01813 9.76158ZM0.826125 6.78557H0.326125V6.80169L0.327163 6.81777L0.826125 6.78557ZM1.49813 5.72958L1.23006 5.30751L1.19988 5.32668L1.17273 5.34995L1.49813 5.72958ZM8.60213 1.21758V0.717577H8.45676L8.33406 0.795511L8.60213 1.21758ZM7.54613 29.1336C7.29095 29.1336 7.19294 29.075 7.16061 29.0459C7.1383 29.0258 7.08613 28.9661 7.08613 28.7696H6.08613C6.08613 29.1491 6.19395 29.5213 6.49164 29.7892C6.77932 30.0481 7.1613 30.1336 7.54613 30.1336V29.1336ZM7.08613 28.7696V10.2416H6.08613V28.7696H7.08613ZM6.54544 9.74323L1.84144 10.1272L1.92281 11.1239L6.62681 10.7399L6.54544 9.74323ZM1.88212 10.1256C1.6712 10.1256 1.60484 10.0732 1.58768 10.056C1.57052 10.0389 1.51813 9.9725 1.51813 9.76158H0.518126C0.518126 10.1266 0.609732 10.4923 0.880571 10.7631C1.15141 11.034 1.51705 11.1256 1.88212 11.1256V10.1256ZM1.51709 9.72939L1.32509 6.75338L0.327163 6.81777L0.519162 9.79377L1.51709 9.72939ZM1.32613 6.78557C1.32613 6.69611 1.39987 6.47233 1.82352 6.10921L1.17273 5.34995C0.700376 5.75482 0.326125 6.23504 0.326125 6.78557H1.32613ZM1.76619 6.15164L8.87019 1.63964L8.33406 0.795511L1.23006 5.30751L1.76619 6.15164ZM8.60213 1.71758H13.4981V0.717577H8.60213V1.71758ZM13.4981 1.71758C13.7091 1.71758 13.7754 1.76997 13.7926 1.78713C13.8097 1.80429 13.8621 1.87065 13.8621 2.08158H14.8621C14.8621 1.71651 14.7705 1.35086 14.4997 1.08002C14.2288 0.809184 13.8632 0.717577 13.4981 0.717577V1.71758ZM13.8621 2.08158V28.7696H14.8621V2.08158H13.8621ZM13.8621 28.7696C13.8621 28.9805 13.8097 29.0469 13.7926 29.064C13.7754 29.0812 13.7091 29.1336 13.4981 29.1336V30.1336C13.8632 30.1336 14.2288 30.042 14.4997 29.7711C14.7705 29.5003 14.8621 29.1347 14.8621 28.7696H13.8621ZM13.4981 29.1336H7.54613V30.1336H13.4981V29.1336Z" fill="#194EBE"/>
</svg>
