<svg width="23" height="32" viewBox="0 0 23 32" fill="none" xmlns="http://www.w3.org/2000/svg">
<path d="M2.2395 30.6336C1.5995 30.6336 1.2795 30.3456 1.2795 29.7696V28.1376L11.8395 16.0416C13.4395 14.2496 14.2395 12.6496 14.2395 11.2416C14.2395 10.2816 13.8875 9.48158 13.1835 8.84158C12.4795 8.20157 11.5515 7.88157 10.3995 7.88157C8.7355 7.88157 7.3275 8.52157 6.1755 9.80158C5.5995 10.1856 5.0875 10.0896 4.6395 9.51357L2.5275 6.53757C1.9515 5.76958 2.0475 5.09758 2.8155 4.52158C5.4395 2.34557 8.4475 1.25757 11.8395 1.25757C14.8475 1.25757 17.2795 2.08957 19.1355 3.75357C21.0555 5.35357 22.0155 7.46557 22.0155 10.0896C22.0155 12.7136 20.8315 15.4656 18.4635 18.3456L13.2795 24.4896H20.9595C21.5355 24.4896 21.8235 24.7776 21.8235 25.3536V29.7696C21.8235 30.3456 21.5355 30.6336 20.9595 30.6336H2.2395Z" fill="white"/>
<path d="M1.2795 28.1376L0.902842 27.8087L0.7795 27.95V28.1376H1.2795ZM11.8395 16.0416L11.4665 15.7085L11.4628 15.7127L11.8395 16.0416ZM13.1835 8.84158L12.8472 9.21155V9.21155L13.1835 8.84158ZM6.1755 9.80158L6.45285 10.2176L6.50512 10.1828L6.54715 10.1361L6.1755 9.80158ZM4.6395 9.51357L4.23175 9.80295L4.23809 9.81189L4.24482 9.82055L4.6395 9.51357ZM2.5275 6.53757L2.9354 6.2481L2.9275 6.23757L2.5275 6.53757ZM2.8155 4.52158L3.1155 4.92158L3.12527 4.91425L3.13467 4.90646L2.8155 4.52158ZM19.1355 3.75357L18.8017 4.12586L18.8085 4.1319L18.8154 4.13768L19.1355 3.75357ZM18.4635 18.3456L18.8457 18.668L18.8497 18.6631L18.4635 18.3456ZM13.2795 24.4896L12.8974 24.1671L12.2034 24.9896H13.2795V24.4896ZM2.2395 30.1336C1.98433 30.1336 1.88631 30.075 1.85398 30.0459C1.83167 30.0258 1.7795 29.9661 1.7795 29.7696H0.7795C0.7795 30.1491 0.887329 30.5213 1.18502 30.7892C1.47269 31.0481 1.85467 31.1336 2.2395 31.1336V30.1336ZM1.7795 29.7696V28.1376H0.7795V29.7696H1.7795ZM1.65616 28.4664L12.2162 16.3704L11.4628 15.7127L0.902842 27.8087L1.65616 28.4664ZM12.2125 16.3746C13.8411 14.5505 14.7395 12.8339 14.7395 11.2416H13.7395C13.7395 12.4653 13.0379 13.9486 11.4665 15.7086L12.2125 16.3746ZM14.7395 11.2416C14.7395 10.1422 14.3291 9.20734 13.5198 8.47161L12.8472 9.21155C13.4459 9.75582 13.7395 10.421 13.7395 11.2416H14.7395ZM13.5198 8.47161C12.7052 7.73107 11.6483 7.38157 10.3995 7.38157V8.38157C11.4547 8.38157 12.2538 8.67208 12.8472 9.21155L13.5198 8.47161ZM10.3995 7.38157C8.58823 7.38157 7.04691 8.08591 5.80385 9.46709L6.54715 10.1361C7.60809 8.95724 8.88277 8.38157 10.3995 8.38157V7.38157ZM5.89815 9.38555C5.68194 9.52969 5.54161 9.54301 5.45164 9.52614C5.35618 9.50824 5.21317 9.43674 5.03418 9.2066L4.24482 9.82055C4.51383 10.1664 4.85083 10.4309 5.26736 10.509C5.68939 10.5881 6.09306 10.4575 6.45285 10.2176L5.89815 9.38555ZM5.04725 9.2242L2.93525 6.2482L2.11975 6.82695L4.23175 9.80295L5.04725 9.2242ZM2.9275 6.23757C2.68574 5.91523 2.63984 5.68671 2.66247 5.52829C2.68511 5.36986 2.79316 5.16333 3.1155 4.92158L2.5155 4.12158C2.06984 4.45582 1.74589 4.87329 1.67253 5.38686C1.59916 5.90044 1.79326 6.39192 2.1275 6.83757L2.9275 6.23757ZM3.13467 4.90646C5.66944 2.80445 8.56469 1.75757 11.8395 1.75757V0.757572C8.33031 0.757572 5.20956 1.8867 2.49633 4.1367L3.13467 4.90646ZM11.8395 1.75757C14.7511 1.75757 17.0556 2.56036 18.8017 4.12586L19.4693 3.38129C17.5034 1.61878 14.9439 0.757572 11.8395 0.757572V1.75757ZM18.8154 4.13768C20.615 5.63738 21.5155 7.60547 21.5155 10.0896H22.5155C22.5155 7.32568 21.496 5.06977 19.4556 3.36946L18.8154 4.13768ZM21.5155 10.0896C21.5155 12.5575 20.4021 15.2005 18.0773 18.028L18.8497 18.6631C21.2609 15.7306 22.5155 12.8696 22.5155 10.0896H21.5155ZM18.0814 18.0231L12.8974 24.1671L13.6616 24.812L18.8456 18.668L18.0814 18.0231ZM13.2795 24.9896H20.9595V23.9896H13.2795V24.9896ZM20.9595 24.9896C21.1704 24.9896 21.2368 25.042 21.2539 25.0591C21.2711 25.0763 21.3235 25.1427 21.3235 25.3536H22.3235C22.3235 24.9885 22.2319 24.6229 21.9611 24.352C21.6902 24.0812 21.3246 23.9896 20.9595 23.9896V24.9896ZM21.3235 25.3536V29.7696H22.3235V25.3536H21.3235ZM21.3235 29.7696C21.3235 29.9805 21.2711 30.0469 21.2539 30.064C21.2368 30.0812 21.1704 30.1336 20.9595 30.1336V31.1336C21.3246 31.1336 21.6902 31.042 21.9611 30.7711C22.2319 30.5003 22.3235 30.1347 22.3235 29.7696H21.3235ZM20.9595 30.1336H2.2395V31.1336H20.9595V30.1336Z" fill="#194EBE"/>
</svg>
